<svg height="22" viewBox="0 0 234 29" width="173" xmlns="http://www.w3.org/2000/svg" xmlns:xlink="http://www.w3.org/1999/xlink"><mask id="a" fill="#fff"><path d="m12.3178244.10435972v21.05077778h-12.2194719v-21.05077778z" fill="#fff" fill-rule="evenodd"/></mask><mask id="b" fill="#fff"><path d="m.00012083.05397222h28.53793117v28.54324998h-28.53793117z" fill="#fff" fill-rule="evenodd"/></mask><g fill="#fff" fill-rule="evenodd"><path d="m48.8685036 4.44904306c-.5247883-.14540278-2.3653735-.44869445-4.3924337-.44869445-2.4177315 0-8.0377591.84301389-8.0377591 8.66213889v4.0197222c0 8.0418611 6.1520654 8.6677778 8.0377591 8.6677778 2.2364922 0 4.062981-.3544444 4.4097521-.4527222.2621928-.0805556.8091326-.2485139.8091326-.9159167v-1.8225694c0-.5514028-.3197866-.8800695-.8445749-.8800695h-.0845783c-.592451.0571945-2.644482.2227361-4.2369708.2227361-2.4704922 0-3.667074-1.5736527-3.667074-4.8192361v-4.0197222c0-3.28626389 1.1643615-4.814 3.667074-4.814 1.5924888 0 3.6445198.16473611 4.2675801.21709722h.053969c.5247883 0 .8445749-.32181944.8445749-.86838889v-1.83102777c0-.667-.5682858-.844625-.826451-.917125"/><path d="m56.2564998 12.8240014c0-3.39984723 1.1285164-4.91952779 3.662241-4.91952779 2.5385577 0 3.6706988 1.51968056 3.6706988 4.91952779v3.6946805c0 3.4091112-1.1321411 4.9283889-3.6706988 4.9283889-2.5337246 0-3.662241-1.5192777-3.662241-4.9283889zm3.662241-8.82365279c-5.2144544 0-8.0848812 3.13320833-8.0848812 8.82365279v3.6946805c0 5.6944723 2.8704268 8.8313056 8.0848812 8.8313056 5.2241205 0 8.0905198-3.1368333 8.0905198-8.8313056v-3.6946805c0-5.69044446-2.8663993-8.82365279-8.0905198-8.82365279z"/><path d="m82.2345274 21.5014056h-5.0275766c-1.4398451 0-1.8361549-.4454723-1.8361549-2.0541667v-14.38802779c0-.46319444-.383019-.84220833-.8457832-.84220833h-2.7012702c-.471222 0-.8441721.37901389-.8441721.84220833v14.38802779c0 5.2328889 3.5285267 5.9027083 6.6047608 5.9027083 1.5067022 0 3.8853666-.1945416 4.7130258-.3902916.4704165-.097875.7809397-.2795278.7809397-.86275v-1.7516806c0-.4668194-.3725473-.8438194-.8437693-.8438194"/><path d="m89.4801904 7.92888194c.5876179-.04027777 1.6275284-.08015277 2.13379-.08015277 2.6319965 0 3.8048158.81119444 3.8048158 2.62852773v.2456945c0 2.1202222-.9964131 2.8738194-3.8048158 2.8738194-.3826162 0-1.5248262-.0378611-2.13379-.0644444zm6.7388778 8.52116666c2.3387917-1.0303055 3.5651772-3.0079444 3.5651772-5.7270972v-.2456945c0-4.18002773-2.8982168-6.4770694-8.170265-6.4770694-1.9424819 0-3.9115456.126875-5.406568.35605556-.4796799.07572222-1.1273081.26865277-1.1273081 1.11368055v18.81374999c0 .4716528.3810052.8454306.8429639.8454306h2.7395318c.4571256 0 .8175904-.3709584.8175904-.8454306v-7.0945278c.1252564.0092639.2581652.0116806.3999346.0241667.5783545.0318194 1.2457177.0716944 1.7338554.0716944h.2045989l3.8491188 7.1368195.0310121.0571944c.137339.2763056.3246196.6500834.7873838.6500834h3.3343993c.3636867 0 .6230607-.257375.6230607-.6230973 0-.076125 0-.2303888-.091023-.3596805z"/><path d="m117.593095 4.2169625h-2.708519c-.476056 0-.843367.36048611-.843367.81804167v12.27425003c0 3.2121527-.868337 4.2980416-3.41938 4.2980416-2.56071 0-3.423811-1.0858889-3.423811-4.2980416v-12.27425003c0-.45755556-.367312-.81804167-.843367-.81804167h-2.707714c-.474847 0-.849005.36048611-.849005.81804167v12.27425003c0 5.3380139 2.633205 8.0406527 7.823897 8.0406527 5.183442 0 7.815036-2.7026388 7.815036-8.0406527v-12.27425003c0-.45755556-.369728-.81804167-.84377-.81804167"/><path d="m135.719758 4.2169625h-3.009779c-.408393 0-.688307.33954167-.795439.62631944l-3.280833 8.14779166c-.109147.2742917-.190906.3427639-.186073.3633056-.026179-.0205417-.105924-.0946528-.213862-.3625l-3.280027-8.1405417c-.107133-.29483333-.383019-.634375-.790606-.634375h-3.040792c-.418864 0-.738651.3045-.738651.70647222 0 .105125.03504.20823611.079746.33793056l4.131046 9.49186112c.457126 1.0625278.981914 1.729125 1.639611 2.06625v7.4642778c0 .4744722.364895.8454305.817188.8454305h2.734699c.458333 0 .821617-.3709583.821617-.8454305v-7.4642778c.658906-.337125 1.178861-1.0037222 1.642028-2.06625l4.163267-9.51562501.018929-.04551389c.026582-.068875.057594-.148625.057594-.26865278 0-.39472222-.342341-.70647222-.769663-.70647222"/><path d="m151.473597 4.2169625h-13.369818c-.471222 0-.846186.36048611-.846186.81804167v2.16211111c0 .45151389.366104.78863889.846186.78863889h4.484665v16.29800003c0 .4716527.37738.8454305.844575.8454305h2.706506c.467597 0 .84538-.3737778.84538-.8454305v-16.29800003h4.488692c.480083 0 .844978-.337125.844978-.78863889v-2.16211111c0-.45755556-.373353-.81804167-.844978-.81804167"/><path d="m166.162313 4.35265833c-1.294854-.14902777-2.561515-.27469444-4.961928-.27469444-2.147081 0-7.148076.87040278-7.148076 8.91387501v3.3917917c0 5.665875 2.600985 8.9130694 7.148076 8.9130694 2.125332 0 3.370647-.1595 4.560382-.3097361l.375367-.0503472c.411614-.0394723.727776-.4035834.727776-.8132084v-9.218375c0-.4652083-.32462-.8140139-.764427-.8140139h-.266623c-.436183 0-.765232.3488056-.765232.8140139v8.4414167c-.6142.0664583-1.902207.2042083-3.867243.2042083-3.502751 0-5.352196-2.475875-5.352196-7.1670277v-3.3917917c0-5.94862501 2.912313-7.19200001 5.352196-7.19200001 2.036323 0 2.899425.08780555 4.81895.27388889h.159893c.471625 0 .711666-.24488889.711666-.70727778v-.27872222c0-.29281945-.124451-.66136111-.728581-.73506945"/><path d="m172.474231 5.91185139c.834909-.06404167 2.17769-.08861111 3.226461-.08861111 4.26758 0 5.930551 1.15879166 5.930551 4.13088889v.13734723c0 3.0937361-1.49462 4.1316944-5.930551 4.1316944-.408795 0-1.115225-.0052361-1.814003-.0088611-.528413-.0080555-1.039911-.0149028-1.412458-.0149028zm6.259601 9.83019441c3.205115-.667 4.702957-2.4766805 4.702957-5.6505694v-.13734723c0-4.11477778-2.317043-5.876125-7.736097-5.876125-1.163958 0-3.316678.061625-4.296981.11398611-.396712.04430555-.735428.41929166-.735428.82086111v19.29708331c0 .4631945.338716.81925.765232.81925h.275886c.426517 0 .76483-.3560555.76483-.81925v-8.35925c.688709 0 2.381886.0157084 3.226461.0157084h1.013732l5.744478 8.8027083c.106327.1369444.382616.3600833.652059.3600833h.357242c.430142 0 .733012-.2895972.733012-.7072778 0-.155875-.062426-.3326944-.188086-.5429444z"/><path d="m193.776125 23.5506986c-3.646936 0-5.495577-2.4041805-5.495577-7.1670278v-3.3917916c0-4.75600003 1.848641-7.16863892 5.495577-7.16863892 3.644923 0 5.498799 2.41263889 5.498799 7.16863892v3.3917916c0 4.7628473-1.853876 7.1670278-5.498799 7.1670278m0-19.47269443c-4.707387 0-7.303136 3.16865277-7.303136 8.91387503v3.3917916c0 5.7436111 2.595749 8.9130695 7.303136 8.9130695 4.70336 0 7.291053-3.1694584 7.291053-8.9130695v-3.3917916c0-5.74522226-2.587693-8.91387503-7.291053-8.91387503"/><path d="m217.073705 4.2169625h-.279512c-.423294 0-.76201.36048611-.76201.81804167v12.58156943c0 4.1248472-1.523618 5.9647361-4.952261 5.9647361-3.390383 0-4.977233-1.9023194-4.977233-5.9647361v-12.58156943c0-.44869445-.343146-.81804167-.761607-.81804167h-.274276c-.426919 0-.765635.36048611-.765635.81804167v12.58156943c0 5.0218333 2.343625 7.6801667 6.778751 7.6801667 4.41539 0 6.754182-2.6583334 6.754182-7.6801667v-12.58156943c0-.45755556-.334286-.81804167-.760399-.81804167"/><path d="m4.57737831 10.9068597c-.82725645 0-1.87361101-.0475278-2.68556282-.0878055v-8.98395837c.73059553-.04511111 1.65572117-.06404166 2.68556282-.06404166 4.21965233 0 5.93941139 1.21236111 5.93941139 4.18647222v.464c0 3.18718055-1.71975906 4.48533331-5.93941139 4.48533331m0-10.80249998c-1.12811359 0-2.65374526.08015278-3.74601377.13855556-.39590705.04672222-.73301204.41768055-.73301204.81844444v19.27452778c0 .4635972.33710499.81925.76281583.81925h.27145611c.4313494 0 .75919105-.3556528.75919105-.81925v-7.8525556c.56224441.0314167 1.6013494.0886112 2.68556282.0886112 5.21123236 0 7.74052669-2.0134862 7.74052669-6.15041671v-.464c0-3.882375-2.60138727-5.85316667-7.74052669-5.85316667" mask="url(#a)" transform="translate(221.51463 3.973886)"/><path d="m18.7720761 14.3269264c0 2.4871528-2.0177969 4.5026528-4.5116489 4.5026528-2.4853942 0-4.50359381-2.0155-4.50359381-4.5026528 0-2.490375 2.01819961-4.50627779 4.50359381-4.50627779.5429122 0 1.0628675.09545833 1.5389225.26986109l4.1290327-8.85466664c-1.7382857-.75520834-3.6493528-1.18215278-5.6679552-1.18215278-7.87706025 0-14.26030637 6.39168055-14.26030637 14.27323612 0 7.877125 6.38324612 14.2704167 14.26030637 14.2704167 7.8859208 0 14.2776248-6.3932917 14.2776248-14.2704167 0-1.0899167-.132506-2.1528472-.3640895-3.1730833h-10.7088227c.8095352.8115972 1.3069363 1.9349444 1.3069363 3.1730833" mask="url(#b)" transform="translate(0 .348886)"/></g></svg>