<svg fill="none" height="24" viewBox="0 0 25 24" width="25" xmlns="http://www.w3.org/2000/svg"><g fill="#0055a2"><path d="m15.7336 4h-6.46699c-2.62825 0-4.76649 2.13824-4.76649 4.76649v6.46701c0 2.6283 2.13824 4.7665 4.76649 4.7665h6.46699c2.6283 0 4.7665-2.1382 4.7665-4.7665v-6.46701c0-2.62825-2.1382-4.76649-4.7665-4.76649zm3.1569 11.2335c0 1.7435-1.4134 3.1569-3.1569 3.1569h-6.46699c-1.74349 0-3.15689-1.4134-3.15689-3.1569v-6.46701c0-1.74352 1.4134-3.15689 3.15689-3.15689h6.46699c1.7435 0 3.1569 1.41337 3.1569 3.15689z"/><path d="m12.5001 7.86133c-2.2818 0-4.13816 1.85638-4.13816 4.13817 0 2.2817 1.85636 4.1381 4.13816 4.1381s4.1382-1.8563 4.1382-4.1381c0-2.28182-1.8564-4.13817-4.1382-4.13817zm0 6.66677c-1.3965 0-2.52856-1.1321-2.52856-2.5286s1.13206-2.52857 2.52856-2.52857 2.5286 1.13207 2.5286 2.52857-1.1321 2.5286-2.5286 2.5286z"/><path d="m16.6463 8.88455c.5476 0 .9915-.44395.9915-.99159s-.4439-.99159-.9915-.99159c-.5477 0-.9916.44395-.9916.99159s.4439.99159.9916.99159z"/></g></svg>