<svg width="32" height="32" viewBox="0 0 32 32" fill="none" xmlns="http://www.w3.org/2000/svg">
<path d="M32 15.9887C32.0022 19.1537 31.0657 22.2482 29.309 24.8809C27.5522 27.5136 25.0542 29.5661 22.1307 30.7788C19.2073 31.9916 15.9899 32.31 12.8855 31.6939C9.78103 31.0778 6.92905 29.5549 4.69028 27.3177C2.45151 25.0805 0.926533 22.2296 0.308254 19.1256C-0.310025 16.0216 0.00616878 12.804 1.21684 9.87968C2.42751 6.9554 4.47826 4.45588 7.10969 2.69727C9.74112 0.938672 12.835 2.22223e-06 16 1.43454e-06C18.1004 -0.000888168 20.1805 0.411982 22.1214 1.21504C24.0622 2.01809 25.8259 3.1956 27.3117 4.68032C28.7975 6.16504 29.9762 7.92788 30.7806 9.86819C31.585 11.8085 31.9994 13.8883 32 15.9887Z" fill="#0055A2"/>
<path d="M6.31917 14.3022L7.1545 22.4298C7.19694 22.9453 7.43141 23.426 7.81148 23.7768C8.19155 24.1276 8.68949 24.3229 9.20671 24.324H22.6759C23.1944 24.3266 23.6946 24.1327 24.0759 23.7812C24.4571 23.4297 24.6909 22.9468 24.7303 22.4298L25.5634 14.3022H6.31917Z" fill="white"/>
<path d="M25.428 11.1663H17.849L20.6463 6.92421C20.7812 6.73466 20.8451 6.50369 20.8269 6.27175C20.8219 6.08381 20.7722 5.89976 20.6819 5.73486C20.5916 5.56996 20.4633 5.42895 20.3076 5.32353C20.222 5.26946 20.1313 5.22408 20.0367 5.18808C20.0141 5.18808 19.9915 5.1655 19.969 5.1655C19.8808 5.13948 19.7898 5.12431 19.698 5.12035H19.6755C19.5852 5.12035 19.4949 5.14292 19.4271 5.14292C19.4045 5.14292 19.382 5.1655 19.3594 5.1655C19.2917 5.18808 19.2465 5.21065 19.1788 5.23323C19.1562 5.25581 19.1336 5.25581 19.1111 5.27838C19.0532 5.30822 19 5.34624 18.953 5.39126C18.9304 5.41384 18.9079 5.41384 18.8853 5.43642C18.8189 5.49838 18.7584 5.56641 18.7047 5.63961L17.5758 7.33059L15.0744 11.1438H6.5901C5.7796 11.1438 5.23551 11.6179 5.23551 12.3177C5.22994 12.6126 5.33998 12.8979 5.54207 13.1127C5.74417 13.3274 6.02229 13.4546 6.31692 13.4669H25.674C25.9707 13.458 26.2519 13.3327 26.4568 13.1181C26.6617 12.9034 26.7739 12.6167 26.769 12.32C26.8142 11.6427 26.2723 11.1686 25.437 11.1686" fill="white"/>
<path d="M11.6856 17.8964V16.7021C11.6856 16.1377 12.0243 15.7765 12.4984 15.7765C12.9725 15.7765 13.2886 16.1377 13.2886 16.6796V17.919C13.2886 18.4834 12.9725 18.7995 12.4984 18.7995C12.0243 18.7995 11.6856 18.4608 11.6856 17.8964Z" fill="#0055A2"/>
<path d="M20.8991 20.4024C20.5049 21.1421 19.9459 21.7811 19.2653 22.2701C18.5846 22.7591 17.8006 23.085 16.9738 23.2225C16.1471 23.36 15.2998 23.3054 14.4975 23.063C13.6952 22.8207 12.9594 22.397 12.3471 21.8248C12.2691 21.7595 12.2051 21.6792 12.1591 21.5885C12.1131 21.4979 12.0859 21.3989 12.0792 21.2974C12.0725 21.196 12.0865 21.0942 12.1202 20.9983C12.154 20.9024 12.2069 20.8144 12.2756 20.7395C12.3444 20.6646 12.4276 20.6045 12.5203 20.5627C12.613 20.5209 12.7132 20.4983 12.8148 20.4964C12.9165 20.4944 13.0175 20.5131 13.1117 20.5513C13.2059 20.5894 13.2914 20.6463 13.363 20.7185C13.8122 21.1356 14.3511 21.444 14.9382 21.6201C15.5253 21.7963 16.1449 21.8354 16.7495 21.7344C17.3511 21.6294 17.9213 21.3902 18.4177 21.0345C18.914 20.6788 19.3239 20.2158 19.6167 19.68C19.6637 19.5938 19.7272 19.5178 19.8037 19.4563C19.8802 19.3949 19.9681 19.3492 20.0624 19.3219C20.1567 19.2946 20.2554 19.2863 20.3529 19.2974C20.4504 19.3084 20.5447 19.3387 20.6304 19.3865C20.7981 19.488 20.92 19.6505 20.9705 19.8399C21.021 20.0293 20.9962 20.2309 20.9013 20.4024" fill="#0055A2"/>
<path d="M21.7728 17.7835C21.68 17.8471 21.5691 17.8788 21.4567 17.8738C21.3575 17.8762 21.2593 17.8524 21.1722 17.8048C21.085 17.7573 21.0119 17.6876 20.9601 17.6029C20.8786 17.4762 20.7646 17.3737 20.63 17.3062C20.4953 17.2387 20.345 17.2086 20.1947 17.2191H20.1721C20.025 17.2109 19.8784 17.2421 19.7474 17.3096C19.6164 17.377 19.5058 17.4783 19.4271 17.6029C19.3391 17.7244 19.2081 17.8077 19.0609 17.8359C18.9136 17.8641 18.7611 17.8351 18.6344 17.7548C18.5078 17.6745 18.4165 17.5489 18.3792 17.4037C18.3419 17.2584 18.3614 17.1044 18.4337 16.973C18.6181 16.6879 18.8729 16.455 19.1734 16.2968C19.4739 16.1386 19.8101 16.0605 20.1496 16.07C20.5016 16.0543 20.8516 16.1316 21.1642 16.2941C21.4769 16.4566 21.7413 16.6985 21.9309 16.9956C21.9763 17.0563 22.0084 17.126 22.0251 17.1999C22.0418 17.2739 22.0427 17.3505 22.0278 17.4249C22.0129 17.4992 21.9825 17.5696 21.9385 17.6314C21.8946 17.6932 21.8381 17.745 21.7728 17.7835Z" fill="#0055A2"/>
</svg>