<svg width="144" height="45" viewBox="0 0 144 45" fill="none" xmlns="http://www.w3.org/2000/svg">
<path d="M45 22.4809C45.0038 26.932 43.6873 31.2841 41.2171 34.9868C38.7469 38.6895 35.234 41.5763 31.1228 43.2821C27.0117 44.9879 22.4869 45.436 18.121 44.5697C13.7551 43.7035 9.74418 41.5617 6.59572 38.4155C3.44726 35.2693 1.3027 31.2599 0.433349 26.8946C-0.436005 22.5293 0.00891006 18.0042 1.71181 13.8918C3.4147 9.77944 6.29907 6.26451 10 3.79172C13.7009 1.31893 18.0521 -0.000624442 22.5032 2.01761e-06C25.4565 -0.00124899 28.3812 0.579269 31.1101 1.7084C33.8391 2.83754 36.3189 4.49317 38.408 6.58076C40.4971 8.66835 42.1544 11.147 43.2855 13.8752C44.4166 16.6034 44.9992 19.5276 45 22.4809Z" fill="#0055A2"/>
<path d="M8.88867 20.1094L10.0634 31.5387C10.123 32.2636 10.4528 32.9397 10.9872 33.433C11.5217 33.9263 12.2219 34.2009 12.9493 34.2024H31.8903C32.6191 34.2061 33.3222 33.9332 33.8578 33.4389C34.3934 32.9446 34.7216 32.2655 34.7762 31.5387L35.9509 20.1094H8.88867Z" fill="white"/>
<path d="M35.7612 15.6996H25.1033L29.0369 9.73725C29.2264 9.46937 29.3163 9.14368 29.2909 8.81655C29.2839 8.55226 29.214 8.29344 29.087 8.06155C28.9601 7.82965 28.7796 7.63137 28.5607 7.48312C28.4404 7.40708 28.3128 7.34326 28.1797 7.29263C28.148 7.29263 28.1162 7.26088 28.0845 7.26088C27.9606 7.22429 27.8326 7.20297 27.7035 7.19739H27.6718C27.5448 7.19739 27.4178 7.22914 27.3225 7.22914C27.2908 7.22914 27.259 7.26088 27.2273 7.26088C27.132 7.29263 27.0686 7.32438 26.9733 7.35613C26.9416 7.38788 26.9098 7.38788 26.8781 7.41963C26.7967 7.46159 26.7219 7.51505 26.6558 7.57837C26.6241 7.61012 26.5923 7.61012 26.5606 7.64186C26.4672 7.72901 26.3822 7.82466 26.3066 7.9276L24.7192 10.3087L21.1951 15.6678H9.27048C8.12754 15.6678 7.36558 16.3345 7.36558 17.3187C7.35691 17.7339 7.51127 18.1359 7.79556 18.4386C8.07985 18.7413 8.47143 18.9205 8.88632 18.9379H36.1073C36.5244 18.9263 36.9202 18.7508 37.209 18.4496C37.4977 18.1483 37.6562 17.7455 37.6502 17.3283C37.7137 16.3758 36.9518 15.7091 35.7771 15.7091" fill="white"/>
<path d="M16.4355 25.1668V23.4842C16.4355 22.6905 16.9118 22.1825 17.5785 22.1825C18.2452 22.1825 18.6865 22.6905 18.6865 23.4524V25.1986C18.6865 25.9891 18.2452 26.4336 17.5785 26.4336C16.9118 26.4336 16.4355 25.9574 16.4355 25.1637" fill="#0356A2"/>
<path d="M29.3958 28.6877C28.842 29.7283 28.0561 30.6275 27.0989 31.3155C26.1418 32.0035 25.0391 32.462 23.8763 32.6554C22.7135 32.8488 21.5217 32.7719 20.3934 32.4307C19.2651 32.0895 18.2304 31.4932 17.3696 30.6879C17.1633 30.4988 17.0406 30.2356 17.0283 29.9561C17.0161 29.6765 17.1155 29.4036 17.3045 29.1973C17.4935 28.991 17.7568 28.8682 18.0363 28.856C18.3159 28.8438 18.5888 28.9432 18.7951 29.1322C19.4255 29.7181 20.1819 30.1516 21.0062 30.3994C21.8304 30.6472 22.7004 30.7027 23.5494 30.5617C24.3984 30.4207 25.2038 30.0868 25.9036 29.5858C26.6034 29.0848 27.179 28.43 27.5862 27.6718C27.6525 27.5505 27.7422 27.4436 27.85 27.3571C27.9579 27.2706 28.0818 27.2064 28.2146 27.168C28.3474 27.1296 28.4865 27.1179 28.6238 27.1335C28.7612 27.1492 28.8941 27.1918 29.0149 27.2591C29.2506 27.4018 29.422 27.6303 29.493 27.8967C29.5641 28.163 29.5292 28.4465 29.3958 28.6877Z" fill="#0356A2"/>
<path d="M30.6202 25.0081C30.4897 25.0975 30.3337 25.142 30.1757 25.1351C30.0361 25.1384 29.8981 25.1049 29.7755 25.038C29.6529 24.9712 29.5501 24.8733 29.4772 24.7541C29.3625 24.5754 29.2016 24.431 29.0117 24.336C28.8217 24.241 28.6096 24.199 28.3978 24.2144H28.366C28.1591 24.2028 27.9529 24.2467 27.7687 24.3416C27.5845 24.4365 27.429 24.5789 27.3184 24.7541C27.26 24.8457 27.1842 24.9248 27.0952 24.987C27.0063 25.0492 26.9059 25.0933 26.7999 25.1167C26.694 25.1402 26.5844 25.1425 26.4775 25.1236C26.3706 25.1047 26.2685 25.0649 26.177 25.0065C26.0855 24.9482 26.0064 24.8723 25.9442 24.7834C25.8819 24.6945 25.8379 24.5941 25.8144 24.4881C25.791 24.3822 25.7886 24.2726 25.8076 24.1657C25.8265 24.0588 25.8662 23.9567 25.9246 23.8652C26.1832 23.4642 26.5408 23.1367 26.9629 22.9142C27.385 22.6917 27.8573 22.5819 28.3343 22.5953C28.8298 22.573 29.3225 22.6816 29.7628 22.91C30.203 23.1385 30.5754 23.4789 30.8424 23.8969C30.9063 23.9826 30.9515 24.0807 30.975 24.185C30.9985 24.2892 30.9998 24.3973 30.9789 24.5021C30.9579 24.6068 30.9152 24.7061 30.8534 24.7932C30.7916 24.8804 30.7121 24.9536 30.6202 25.0081Z" fill="#0356A2"/>
<path d="M54.6633 23.789C55.3586 19.8332 57.7715 17.9061 61.2606 17.9061C62.268 17.9023 63.2714 18.0315 64.2449 18.2902C64.3685 18.3109 64.4859 18.3592 64.5883 18.4314C64.6907 18.5036 64.7756 18.5979 64.8366 18.7074C64.8975 18.8169 64.9331 18.9387 64.9406 19.0638C64.9481 19.1889 64.9274 19.314 64.8799 19.43L64.6069 20.2332C64.4164 20.8079 63.9497 20.9761 63.4004 20.8492C62.6123 20.6521 61.8031 20.5519 60.9908 20.5507C59.3176 20.5507 58.1334 21.4619 57.6889 24.043L57.2254 26.6242C56.7809 29.2021 57.6254 30.1355 59.2986 30.1355C60.1682 30.1448 61.0351 30.038 61.8765 29.818C62.448 29.6688 62.8512 29.9419 62.8925 30.5165L62.9369 31.2562C62.9476 31.5161 62.8632 31.7709 62.6996 31.9731C62.536 32.1753 62.3043 32.311 62.048 32.3547C60.9994 32.6357 59.9173 32.7714 58.8319 32.7579C55.5523 32.7579 53.4347 30.8308 54.1363 26.8781L54.6633 23.789Z" fill="#0055A2"/>
<path d="M64.3175 27.9353L64.654 26.0304C65.181 23.0207 67.0129 21.2111 70.1052 21.2111C72.5498 21.2111 74.3594 23.0207 73.8324 26.0304L73.4991 27.9353C72.972 30.9451 71.1624 32.7579 68.1019 32.7579C65.6096 32.7579 63.7777 30.9451 64.3175 27.9353ZM70.5719 27.8306L70.8671 26.1257C71.1179 24.6716 70.8862 23.7446 69.6448 23.7446C68.4035 23.7446 67.813 24.6716 67.5812 26.1257L67.2859 27.8306C67.0319 29.2815 67.2859 30.2085 68.5273 30.2085C69.7686 30.2085 70.3052 29.2815 70.5592 27.8306H70.5719Z" fill="#0055A2"/>
<path d="M134.387 27.9353L134.724 26.0304C135.251 23.0207 137.083 21.2111 140.178 21.2111C142.62 21.2111 144.429 23.0207 143.905 26.0304L143.569 27.9353C143.042 30.9451 141.232 32.7579 138.156 32.7579C135.692 32.7579 133.848 30.9451 134.387 27.9353ZM140.642 27.8306L140.937 26.1257C141.188 24.6716 140.956 23.7446 139.715 23.7446C138.473 23.7446 137.883 24.6716 137.651 26.1257L137.356 27.8306C137.102 29.2815 137.356 30.2085 138.597 30.2085C139.839 30.2085 140.388 29.2815 140.642 27.8306Z" fill="#0055A2"/>
<path d="M77.0164 18.7346C77.2291 17.6393 78.6292 17.0043 79.4927 17.3091C79.6835 17.3496 79.8508 17.4636 79.9583 17.6263C80.0658 17.7891 80.105 17.9876 80.0674 18.179L77.6513 31.8117C77.6135 32.079 77.4794 32.3232 77.2742 32.4986C77.069 32.6739 76.8068 32.7684 76.537 32.7642H75.4893C75.3674 32.7791 75.2437 32.7629 75.1298 32.7171C75.0159 32.6714 74.9154 32.5975 74.8377 32.5024C74.7601 32.4073 74.7078 32.2941 74.6857 32.1733C74.6636 32.0525 74.6725 31.9281 74.7114 31.8117L77.0164 18.7346Z" fill="#0055A2"/>
<path d="M81.8612 18.7346C82.0739 17.6393 83.4708 17.0043 84.3376 17.3091C84.5284 17.3496 84.6956 17.4636 84.8031 17.6263C84.9106 17.7891 84.9498 17.9876 84.9122 18.179L82.5184 31.8117C82.4805 32.079 82.3464 32.3232 82.1412 32.4986C81.936 32.6739 81.6739 32.7684 81.404 32.7642H80.3532C80.2315 32.7785 80.1083 32.7619 79.9948 32.7158C79.8813 32.6698 79.7813 32.5959 79.704 32.5009C79.6268 32.4059 79.5747 32.2929 79.5528 32.1724C79.5308 32.0519 79.5397 31.9279 79.5785 31.8117L81.8612 18.7346Z" fill="#0055A2"/>
<path d="M110.368 21.6841H109.365L109.768 19.3823C109.807 19.1904 109.768 18.9911 109.66 18.8276C109.553 18.6641 109.385 18.5497 109.193 18.5092C108.327 18.1918 106.927 18.8267 106.717 19.9347L106.4 21.6841H105.342C105.247 21.6808 105.153 21.6974 105.064 21.7329C104.976 21.7684 104.896 21.8219 104.83 21.8901C104.763 21.9582 104.712 22.0395 104.679 22.1287C104.646 22.2179 104.632 22.313 104.638 22.4079V22.9476C104.63 23.0454 104.645 23.1434 104.679 23.2353C104.713 23.3271 104.766 23.4104 104.836 23.4797C104.905 23.549 104.988 23.6025 105.08 23.6367C105.172 23.6709 105.27 23.6849 105.368 23.6778H106.076L104.638 31.8086C104.599 32.0005 104.638 32.1998 104.745 32.3633C104.853 32.5267 105.021 32.6412 105.212 32.6817C106.076 32.9991 107.476 32.3642 107.689 31.2562L109.012 23.6778H110.051C110.495 23.6778 110.749 23.4239 110.844 22.9476L110.94 22.3762C110.971 22.291 110.979 22.1991 110.963 22.1098C110.948 22.0204 110.91 21.9366 110.852 21.8667C110.794 21.7968 110.719 21.7431 110.634 21.7111C110.549 21.6791 110.458 21.6698 110.368 21.6841Z" fill="#0055A2"/>
<path d="M85.3221 25.8495C85.8491 22.8175 87.954 21.1984 90.5859 21.1984C92.5416 21.1984 94.1227 22.5254 94.1227 24.3986C94.1227 27.5353 90.5859 27.9353 87.8683 28.0623L87.827 28.3576C87.6365 29.4085 88.0588 30.2085 89.4144 30.2085C90.1663 30.1883 90.9127 30.0753 91.6368 29.872C92.1829 29.7259 92.5893 29.9133 92.6051 30.4847L92.6464 31.1991C92.6656 31.4637 92.5889 31.7265 92.4304 31.9392C92.2718 32.152 92.042 32.3006 91.7828 32.3579C90.8677 32.6333 89.9161 32.7682 88.9604 32.7579C85.9951 32.7579 84.4776 30.853 84.9824 27.8718L85.3221 25.8495ZM91.1765 24.6938C91.1765 24.0811 90.732 23.7414 90.1415 23.7414C89.2811 23.7414 88.554 24.3319 88.2683 25.805L88.2048 26.1225C89.8081 26.0177 91.1765 25.7034 91.1765 24.6938Z" fill="#0055A2"/>
<path d="M95.3034 26.0178C95.8717 22.608 97.9576 21.1984 100.701 21.1984C101.438 21.1973 102.173 21.289 102.888 21.4714C103.009 21.4947 103.122 21.5454 103.22 21.6196C103.318 21.6938 103.398 21.7894 103.453 21.8992C103.508 22.009 103.538 22.13 103.539 22.2529C103.54 22.3758 103.513 22.4972 103.46 22.608L103.228 23.2811C103.158 23.5198 102.998 23.7218 102.782 23.844C102.565 23.9662 102.309 23.9989 102.069 23.9351C101.548 23.8137 101.016 23.7498 100.482 23.7446C99.2402 23.7446 98.5449 24.2938 98.2592 26.0178L97.9226 27.9227C97.6274 29.6498 98.1322 30.1958 99.3735 30.1958C99.9412 30.1845 100.506 30.1143 101.059 29.9863C101.605 29.8593 101.964 30.0688 102.028 30.6816L102.091 31.3165C102.118 31.4441 102.118 31.5757 102.091 31.7033C102.065 31.8309 102.012 31.9517 101.937 32.0582C101.862 32.1647 101.766 32.2547 101.655 32.3227C101.544 32.3906 101.42 32.435 101.291 32.4531C100.513 32.6452 99.7147 32.7443 98.9132 32.7484C96.3733 32.7484 94.3637 31.3356 94.9732 27.9258L95.3034 26.0178Z" fill="#0055A2"/>
<path d="M120.404 28.0813C120.483 27.9422 120.511 27.7796 120.482 27.6222C120.453 27.4648 120.369 27.3227 120.245 27.2209C119.943 26.9786 119.597 26.7955 119.226 26.6812C118.687 26.586 118.56 26.9352 118.398 27.2844C118.253 27.5953 118.083 27.8937 117.89 28.1766L117.001 27.0622C117.509 26.7765 118.906 25.7573 118.941 24.2334C118.952 23.9065 118.899 23.5805 118.784 23.2743C118.669 22.968 118.495 22.6876 118.271 22.4492C118.008 22.1988 117.699 22.0026 117.361 21.8719C117.023 21.7412 116.662 21.6784 116.299 21.6872C114.01 21.6872 113.086 23.1191 113.023 24.3287C112.997 24.7099 113.048 25.0924 113.174 25.4531C113.3 25.8138 113.498 26.1452 113.756 26.4272L113.915 26.6177C113.404 26.8717 111.781 27.8273 111.496 29.7354C111.434 30.091 111.454 30.4559 111.554 30.8028C111.653 31.1497 111.83 31.4696 112.07 31.7387C112.364 32.0621 112.722 32.32 113.122 32.4956C113.522 32.6712 113.954 32.7606 114.391 32.7578H114.423C115.58 32.7339 116.705 32.3683 117.655 31.707L118.322 32.5007C118.424 32.6144 118.565 32.687 118.717 32.7051C118.87 32.7232 119.023 32.6855 119.15 32.5991C119.453 32.4119 119.721 32.1746 119.944 31.8975C120.36 31.453 120.328 31.2942 120.103 31.0085L119.182 29.9576C119.66 29.3813 120.07 28.7517 120.404 28.0813ZM115.251 24.3604C115.251 23.9763 115.601 23.7255 116.045 23.7255C116.158 23.7205 116.271 23.7408 116.375 23.7847C116.48 23.8286 116.573 23.8951 116.648 23.9794C116.715 24.0515 116.764 24.138 116.792 24.2322C116.819 24.3264 116.824 24.4257 116.807 24.5223C116.712 25.0938 116.14 25.4748 115.886 25.6018L115.601 25.2525C115.398 24.9964 115.277 24.6859 115.251 24.3604ZM113.947 29.3544C114.042 28.5893 114.74 28.2083 115.026 28.0845L116.363 29.9608C116.176 30.1604 115.949 30.3176 115.696 30.4217C115.444 30.5257 115.172 30.5743 114.899 30.564C114.756 30.5717 114.614 30.5471 114.482 30.4921C114.35 30.4372 114.232 30.3532 114.137 30.2465C114.037 30.1236 113.967 29.9786 113.934 29.8235C113.901 29.6683 113.905 29.5076 113.947 29.3544Z" fill="#0055A2"/>
<path d="M122.923 23.789C123.621 19.8331 126.199 17.906 129.691 17.906C130.634 17.9044 131.573 18.0305 132.482 18.2806C132.608 18.3026 132.727 18.3521 132.831 18.4257C132.936 18.4993 133.022 18.5951 133.085 18.7062C133.148 18.8174 133.186 18.9411 133.195 19.0684C133.204 19.1957 133.185 19.3235 133.139 19.4426L132.895 20.1855C132.855 20.3124 132.791 20.4301 132.705 20.5318C132.62 20.6335 132.515 20.7173 132.397 20.7781C132.278 20.839 132.149 20.8757 132.017 20.8863C131.884 20.8968 131.751 20.8809 131.625 20.8396C130.848 20.6629 130.053 20.5777 129.256 20.5856C127.583 20.5856 126.399 21.4745 125.958 24.0334L125.491 26.6368C125.024 29.237 125.894 30.1037 127.564 30.1037C128.232 30.1073 128.899 30.037 129.552 29.8942L130.101 26.7638H129.615C129.044 26.7638 128.704 26.5288 128.812 25.9383L128.898 25.4304C128.933 25.1733 129.068 24.9406 129.274 24.7821C129.479 24.6235 129.738 24.552 129.996 24.5827H132.365C132.486 24.5683 132.61 24.5848 132.724 24.6306C132.838 24.6764 132.939 24.7501 133.017 24.8449C133.095 24.9397 133.148 25.0525 133.171 25.1731C133.194 25.2937 133.186 25.4182 133.149 25.5351L132.174 31.0339C132.121 31.3108 131.995 31.5685 131.809 31.7805C131.623 31.9925 131.384 32.1513 131.117 32.2404C129.803 32.578 128.454 32.7561 127.097 32.7706C123.818 32.7706 121.7 30.8434 122.402 26.8908L122.923 23.789Z" fill="#0055A2"/>
</svg>