<?xml version="1.0" encoding="UTF-8" standalone="no"?>
<svg width="71px" height="36px" viewBox="0 0 71 36" version="1.1" xmlns="http://www.w3.org/2000/svg" xmlns:xlink="http://www.w3.org/1999/xlink">
    <!-- Generator: Sketch 43.1 (39012) - http://www.bohemiancoding.com/sketch -->
    <title>Group 13 Copy 5</title>
    <desc>Created with Sketch.</desc>
    <defs>
        <polygon id="path-1" points="0 0.190300943 0 35.4375 70.7143228 35.4375 70.7143228 0.190300943 0 0.190300943"></polygon>
    </defs>
    <g id="Page-1" stroke="none" stroke-width="1" fill="none" fill-rule="evenodd">
        <g id="Header-Tabs" transform="translate(-301.000000, -981.000000)">
            <g id="Group-13-Copy-5" transform="translate(301.000000, 981.000000)">
                <g id="Bio-Planet-logo">
                    <g id="Group-16-Copy">
                        <g id="Page-1">
                            <g id="Group-3" transform="translate(0.000000, 0.372206)">
                                <mask id="mask-2" fill="white">
                                    <use xlink:href="#path-1"></use>
                                </mask>
                                <g id="Clip-2"></g>
                                <path d="M54.1352079,0.29086875 C65.5958378,0.08443125 70.4551449,-0.13494375 70.5339717,3.27211875 C70.5552157,4.19293125 70.6871528,8.21536875 70.6871528,9.94899375 C70.6871528,12.8734312 70.4696803,17.5849313 70.4914835,18.1800562 C71.0656331,33.9964313 70.6413102,34.6748063 67.9265386,35.0404313 C55.1934992,35.6524313 12.6197748,35.4611813 3.12590079,35.1073688 C-0.770713386,34.9616813 0.0779322835,29.3558063 0.0779322835,26.7559313 C0.0779322835,20.6353688 0.672766929,14.2093687 0.257948031,8.10343125 C-0.250233071,0.63399375 3.72688504,-0.00894375 9.7898378,0.28411875 C10.5842551,0.33193125 46.8484835,0.42136875 54.1352079,0.29086875 Z" id="Fill-1" fill="#005CA6" mask="url(#mask-2)"></path>
                            </g>
                            <path d="M36.7288591,18.06975 C37.4478039,17.9499375 37.9872921,18.0095625 39.0662685,17.470125 C40.1446858,16.930125 40.5645362,17.2299375 40.8641898,16.3305 C41.1638433,15.4310625 41.1040244,16.3305 41.7631504,15.49125 C42.4222764,14.6514375 42.1824417,15.0710625 42.2428197,14.711625 C42.3026386,14.351625 42.4820953,14.112 42.6022921,13.572 C42.7219299,13.032 43.0814024,13.212 43.1417803,12.4925625 C43.2015992,11.773125 43.321237,12.2529375 43.2614181,11.6533125 C43.2015992,11.053125 43.0215835,10.6335 42.9617646,9.9736875 C42.9019457,9.3144375 43.321237,8.834625 42.8415677,8.114625 C42.3624575,7.3951875 42.3026386,6.9755625 41.4634969,6.076125 C40.6243551,5.176125 41.7631504,5.4163125 40.3247016,4.8166875 C38.8862528,4.2170625 38.6464181,3.91725 37.9274732,3.796875 C37.2085283,3.6770625 37.1487094,3.317625 36.3095677,3.4374375 C35.470426,3.55725 35.2904102,3.2574375 34.4512685,3.4970625 C33.6126858,3.73725 33.6725047,3.976875 33.0731976,4.156875 C32.4738906,4.336875 32.7735441,3.976875 31.5749299,4.696875 C30.3763157,5.4163125 30.6759693,5.536125 30.3763157,5.8359375 C30.0766622,6.13575 29.5969929,6.2555625 29.537174,6.67575 C29.4767961,7.095375 29.3571583,7.2151875 29.2375205,7.8148125 C29.1173236,8.4144375 28.6382134,7.8148125 28.6382134,8.654625 C28.6382134,9.4944375 28.6980323,9.3740625 28.6382134,9.673875 C28.5778354,9.9736875 28.0987252,10.2735 28.218363,10.573875 C28.3385598,10.8736875 28.1585441,10.9333125 28.3385598,11.6533125 C28.5180165,12.37275 28.6980323,12.432375 28.8176701,13.0921875 C28.9378669,13.752 28.9378669,13.8121875 29.1173236,14.171625 C29.2973394,14.531625 30.0162843,15.13125 30.3159378,15.6706875 C30.6155913,16.2106875 30.7956071,16.3305 31.4547331,16.8103125 C32.1138591,17.290125 32.174237,17.3503125 32.9530008,17.5899375 C33.7323236,17.830125 33.6126858,18.1299375 34.2718118,18.1299375 C34.9309378,18.1299375 34.8107409,17.830125 35.5302449,18.06975 C36.2491898,18.309375 36.0093551,18.1895625 36.7288591,18.06975" id="Fill-4" fill="#FEFEFE"></path>
                            <path d="M36.7887339,4.00696875 C37.1482063,4.03678125 38.4966472,4.27696875 39.4559858,4.96659375 C40.4147654,5.65621875 41.2237181,6.49546875 41.5535606,7.12546875 C41.8828441,7.75490625 42.0326709,7.99509375 42.0326709,7.99509375 C42.0326709,7.99509375 42.1226787,8.41471875 41.9130331,8.32471875 C41.7033874,8.23471875 41.6731984,8.50471875 41.9130331,8.50471875 C42.1528677,8.50471875 42.1824976,8.35453125 42.1824976,8.35453125 C42.1824976,8.35453125 42.602348,9.19434375 42.631978,10.1235937 C42.6621669,11.0534062 42.6917969,11.2334062 42.5425291,12.0726562 C42.3921433,12.9124687 42.631978,12.1626562 42.3323244,12.2526562 C42.0326709,12.3426562 42.4525213,12.5226562 41.8532142,12.6424687 C41.2539071,12.7622812 40.6842299,12.7926562 40.6842299,12.7926562 C40.6842299,12.7926562 40.8642457,12.6424687 41.1638992,12.7324687 C41.4635528,12.8224687 41.5535606,12.7926562 41.7928362,12.7622812 C42.0326709,12.7324687 42.3323244,12.3724687 42.3921433,12.4922812 C42.4525213,12.6126562 42.4223323,12.6722812 42.4223323,12.6722812 C42.4223323,12.6722812 42.3323244,13.2724687 41.942663,13.9019062 C41.5535606,14.5313437 41.4333638,14.8311562 40.7440488,15.5809687 C40.0552929,16.3307812 39.0959543,16.8404062 38.646474,17.0800312 C38.1969937,17.3202187 37.9275291,17.4102187 37.9275291,17.4102187 C37.9275291,17.4102187 37.9571591,17.4698437 37.9571591,17.1700312 C37.9571591,16.8702187 37.7475134,16.6305937 37.7475134,16.6305937 C37.7475134,16.6305937 37.8973402,16.9602187 37.8375213,17.1700312 C37.7777024,17.3798437 37.6876945,17.4400312 37.6876945,17.4400312 C37.6876945,17.4400312 37.4182299,17.5896562 36.6690961,17.6802187 C35.9199622,17.7696562 34.8107969,17.7398437 33.8822063,17.4400312 C32.9530567,17.1402187 31.9942772,16.8105937 31.1255055,15.9409687 C30.2561748,15.0713437 29.6568677,14.3215312 29.2973953,13.3922812 C28.9379228,12.4624687 28.9379228,12.1930312 28.9379228,12.1930312 L28.9077339,11.9528437 C28.9077339,11.9528437 28.6980882,10.7834062 28.9077339,9.67415625 C29.1173795,8.56434375 29.2672063,7.72509375 30.4060016,6.46565625 C31.5447969,5.20621875 31.8142614,5.05659375 32.713222,4.60659375 C33.6121827,4.15659375 33.9420252,4.06715625 34.9606236,3.94678125 C35.9797811,3.82696875 36.4292614,3.97715625 36.7887339,4.00696875" id="Fill-6" fill="#007FBE"></path>
                            <path d="M35.8898291,8.4747375 C35.5303567,8.41455 35.7701913,8.2047375 35.4699787,8.3847375 C35.1703252,8.5647375 35.4403488,8.50455 35.1406953,8.3251125 C34.8410417,8.14455 34.8706717,8.174925 34.7510339,8.2947375 C34.6313961,8.41455 34.9908685,8.5647375 34.5413882,8.68455 C34.0919079,8.8043625 34.4211913,8.9843625 34.1215378,9.0743625 C33.8224433,9.1643625 33.6424276,8.77455 33.6424276,8.77455 C33.6424276,8.77455 33.2225772,8.6547375 33.1929472,8.9247375 C33.1627583,9.194175 32.713278,9.284175 32.5936402,9.4343625 C32.4734433,9.5839875 32.2039787,9.1643625 32.1139709,9.374175 C32.023963,9.5839875 31.7544984,9.0743625 31.6046717,9.4939875 C31.4548449,9.914175 31.8143173,10.9036125 31.9943331,11.113425 C32.1737898,11.3232375 32.5338213,10.8732375 32.8032858,11.5932375 C33.0727504,12.312675 33.4926008,12.492675 33.6424276,12.7924875 C33.7922543,13.0923 34.032089,12.9123 34.0919079,13.3324875 C34.1517268,13.7521125 34.1819157,13.781925 33.9118921,14.231925 C33.6424276,14.6813625 33.4624118,14.5317375 33.3724039,14.891175 C33.2829551,15.251175 33.342774,15.341175 33.1331283,15.611175 C32.9229236,15.8806125 33.312585,15.7309875 32.7730969,15.9408 C32.2341677,16.1506125 31.9641441,15.9706125 32.0843409,16.1506125 C32.2039787,16.3306125 32.8334748,16.6602375 32.9531126,16.4808 C33.0727504,16.3008 32.8334748,16.360425 33.5222307,16.0308 C34.2115457,15.701175 34.6012071,15.01155 35.1703252,14.8613625 C35.7400024,14.711175 35.9194591,14.9513625 36.2493016,14.1717375 C36.5791441,13.3921125 36.4891362,11.952675 37.2382701,11.952675 C37.9874039,11.952675 37.5681126,11.89305 37.8073882,11.26305 C38.0472228,10.6336125 37.5379236,10.6038 37.9874039,10.4536125 C38.4368843,10.3039875 38.3172465,10.2139875 38.4967031,10.2736125 C38.6767189,10.3338 38.7667268,10.2438 38.9461835,10.3636125 C39.1261992,10.483425 39.6354984,10.573425 39.6354984,10.573425 C39.6354984,10.573425 39.4554827,10.6038 39.7853252,11.113425 C40.1151677,11.62305 40.6842858,11.53305 40.594278,11.89305 C40.5042701,12.25305 40.0849787,13.3021125 40.2946244,12.8824875 C40.5042701,12.4628625 40.5042701,12.3728625 41.193585,12.1928625 C41.8829,12.0128625 42.0925457,11.80305 42.3021913,11.62305 C42.5123961,11.44305 42.572215,11.203425 42.572215,11.203425 C42.572215,11.203425 42.6018449,10.483425 42.572215,9.8539875 C42.542026,9.22455 42.3323803,9.0743625 42.3021913,8.8943625 C42.2725614,8.7143625 42.2725614,8.3251125 42.1825535,8.4747375 C42.0925457,8.6243625 42.0327268,8.5343625 41.9427189,8.264925 C41.8532701,7.994925 42.1523646,8.0247375 41.913089,7.724925 C41.6732543,7.4251125 41.4334197,7.724925 41.193585,8.1147375 C40.9543094,8.50455 41.0437583,8.3251125 41.0141283,8.14455 C40.9839394,7.9651125 40.9839394,7.544925 40.9839394,7.544925 C40.9839394,7.544925 40.5344591,6.6454875 40.3846323,6.9751125 C40.2348055,7.3053 39.6953173,8.5343625 39.6953173,8.7143625 C39.6953173,8.8943625 39.6053094,9.5243625 39.3956638,9.7038 C39.1860181,9.8838 38.8863646,10.0936125 38.6465299,9.7639875 C38.4066953,9.4343625 37.4182858,9.22455 37.2679,9.3139875 C37.1186323,9.4039875 36.0994748,8.9843625 36.0994748,8.8347375 C36.0994748,8.68455 36.2493016,8.5343625 35.8898291,8.4747375" id="Fill-8" fill="#FEFEFE"></path>
                            <path d="M35.8898291,8.4747375 C35.5303567,8.41455 35.7701913,8.2047375 35.4699787,8.3847375 C35.1703252,8.5647375 35.4403488,8.50455 35.1406953,8.3251125 C34.8410417,8.14455 34.8706717,8.174925 34.7510339,8.2947375 C34.6313961,8.41455 34.9908685,8.5647375 34.5413882,8.68455 C34.0919079,8.8043625 34.4211913,8.9843625 34.1215378,9.0743625 C33.8224433,9.1643625 33.6424276,8.77455 33.6424276,8.77455 C33.6424276,8.77455 33.2225772,8.6547375 33.1929472,8.9247375 C33.1627583,9.194175 32.713278,9.284175 32.5936402,9.4343625 C32.4734433,9.5839875 32.2039787,9.1643625 32.1139709,9.374175 C32.023963,9.5839875 31.7544984,9.0743625 31.6046717,9.4939875 C31.4548449,9.914175 31.8143173,10.9036125 31.9943331,11.113425 C32.1737898,11.3232375 32.5338213,10.8732375 32.8032858,11.5932375 C33.0727504,12.312675 33.4926008,12.492675 33.6424276,12.7924875 C33.7922543,13.0923 34.032089,12.9123 34.0919079,13.3324875 C34.1517268,13.7521125 34.1819157,13.781925 33.9118921,14.231925 C33.6424276,14.6813625 33.4624118,14.5317375 33.3724039,14.891175 C33.2829551,15.251175 33.342774,15.341175 33.1331283,15.611175 C32.9229236,15.8806125 33.312585,15.7309875 32.7730969,15.9408 C32.2341677,16.1506125 31.9641441,15.9706125 32.0843409,16.1506125 C32.2039787,16.3306125 32.8334748,16.6602375 32.9531126,16.4808 C33.0727504,16.3008 32.8334748,16.360425 33.5222307,16.0308 C34.2115457,15.701175 34.6012071,15.01155 35.1703252,14.8613625 C35.7400024,14.711175 35.9194591,14.9513625 36.2493016,14.1717375 C36.5791441,13.3921125 36.4891362,11.952675 37.2382701,11.952675 C37.9874039,11.952675 37.5681126,11.89305 37.8073882,11.26305 C38.0472228,10.6336125 37.5379236,10.6038 37.9874039,10.4536125 C38.4368843,10.3039875 38.3172465,10.2139875 38.4967031,10.2736125 C38.6767189,10.3338 38.7667268,10.2438 38.9461835,10.3636125 C39.1261992,10.483425 39.6354984,10.573425 39.6354984,10.573425 C39.6354984,10.573425 39.4554827,10.6038 39.7853252,11.113425 C40.1151677,11.62305 40.6842858,11.53305 40.594278,11.89305 C40.5042701,12.25305 40.0849787,13.3021125 40.2946244,12.8824875 C40.5042701,12.4628625 40.5042701,12.3728625 41.193585,12.1928625 C41.8829,12.0128625 42.0925457,11.80305 42.3021913,11.62305 C42.5123961,11.44305 42.572215,11.203425 42.572215,11.203425 C42.572215,11.203425 42.6018449,10.483425 42.572215,9.8539875 C42.542026,9.22455 42.3323803,9.0743625 42.3021913,8.8943625 C42.2725614,8.7143625 42.2725614,8.3251125 42.1825535,8.4747375 C42.0925457,8.6243625 42.0327268,8.5343625 41.9427189,8.264925 C41.8532701,7.994925 42.1523646,8.0247375 41.913089,7.724925 C41.6732543,7.4251125 41.4334197,7.724925 41.193585,8.1147375 C40.9543094,8.50455 41.0437583,8.3251125 41.0141283,8.14455 C40.9839394,7.9651125 40.9839394,7.544925 40.9839394,7.544925 C40.9839394,7.544925 40.5344591,6.6454875 40.3846323,6.9751125 C40.2348055,7.3053 39.6953173,8.5343625 39.6953173,8.7143625 C39.6953173,8.8943625 39.6053094,9.5243625 39.3956638,9.7038 C39.1860181,9.8838 38.8863646,10.0936125 38.6465299,9.7639875 C38.4066953,9.4343625 37.4182858,9.22455 37.2679,9.3139875 C37.1186323,9.4039875 36.0994748,8.9843625 36.0994748,8.8347375 C36.0994748,8.68455 36.2493016,8.5343625 35.8898291,8.4747375 Z" id="Stroke-10" stroke="#FEFEFE" stroke-width="0.204"></path>
                            <path d="M34.0318654,7.875 C33.612574,7.725375 33.4325583,8.145 33.5521961,7.605 C33.6723929,7.0655625 32.983078,7.5751875 32.952889,7.3051875 C32.9232591,7.0351875 33.1630937,6.915375 33.2525425,6.67575 C33.3425504,6.4355625 33.582385,6.40575 33.7322118,6.4355625 C33.8820386,6.465375 33.8820386,6.49575 34.2717,6.2859375 C34.6613614,6.076125 34.5713535,5.986125 34.6015425,5.8359375 C34.6311724,5.6863125 34.930826,5.6863125 34.6909913,5.4163125 C34.4517157,5.1463125 33.7920307,5.266125 34.0318654,5.0563125 C34.2717,4.8465 34.2118811,4.7266875 34.5115346,4.8763125 C34.8111882,5.0265 34.6311724,5.1165 35.3501173,4.9365 C36.0696213,4.7565 35.4999441,4.696875 35.8297866,4.5765 C36.1596291,4.4566875 36.219448,4.606875 36.2792669,4.3065 C36.3390858,4.00725 36.249637,3.976875 36.4592827,4.0370625 C36.6689283,4.0966875 37.3280543,4.066875 37.8675425,4.2766875 C38.4070307,4.4865 39.1259756,4.7565 39.5754559,5.1165 C40.0249362,5.4759375 40.3844087,5.77575 40.5046055,5.95575 C40.6242433,6.13575 40.5342354,5.986125 40.1451331,6.076125 C39.7554717,6.166125 38.9163299,6.076125 39.1857945,6.31575 C39.4558181,6.555375 39.9651173,6.49575 39.8751094,6.6459375 C39.7856606,6.7955625 39.9349283,6.9451875 39.7856606,7.1555625 C39.6352748,7.365375 39.9953063,8.474625 39.7856606,8.1748125 C39.5754559,7.875 38.7066843,7.0351875 38.4970386,7.275375 C38.2868339,7.515 38.4070307,7.3355625 38.6166764,7.545375 C38.826322,7.7551875 39.0359677,7.725375 39.1857945,8.0848125 C39.3356213,8.4448125 39.7252827,8.654625 38.9465189,8.5944375 C38.1671961,8.5348125 37.6578969,8.474625 37.6578969,8.294625 C37.6578969,8.114625 37.4482512,8.2648125 37.567889,7.7551875 C37.6875268,7.2455625 38.1370071,7.3355625 37.6277079,7.185375 C37.1184087,7.0351875 37.2978654,6.825375 37.0585898,7.0655625 C36.8187551,7.3051875 36.6991173,7.185375 36.7885661,7.545375 C36.878574,7.9048125 37.1485976,8.024625 36.7885661,7.965 C36.4290937,7.9048125 36.4290937,8.0848125 36.249637,7.9948125 C36.0696213,7.9048125 35.7995976,8.055 36.0696213,7.635375 C36.3390858,7.2151875 36.3094559,7.005375 36.1294402,6.915375 C35.9499835,6.825375 35.8599756,6.735375 35.6201409,6.67575 C35.3803063,6.6155625 35.4401252,5.986125 34.8111882,6.67575 C34.1816921,7.365375 34.4517157,7.0351875 34.3315189,7.365375 C34.2118811,7.695 34.301889,7.8148125 34.301889,7.8148125 C34.301889,7.8148125 34.4517157,8.024625 34.0318654,7.875" id="Fill-12" fill="#FEFEFE"></path>
                            <path d="M31.5747063,5.29633125 C31.5747063,5.29633125 30.6757457,5.77614375 30.2564543,6.37576875 C29.8366039,6.97539375 29.0287693,8.46039375 28.8778244,9.16408125 C28.6978087,10.0038938 28.7581866,10.9635188 28.8476354,11.2931438 C28.9376433,11.6233313 28.8778244,12.2825813 28.9678323,11.8027688 C29.0578402,11.3229563 29.2971157,11.2335188 29.4469425,11.4129563 C29.5967693,11.5929563 30.1362575,12.2527688 29.8667929,11.2931438 C29.5967693,10.3335188 28.9678323,11.5029563 29.5671394,10.1838938 C30.1664465,8.86426875 30.3162732,8.74445625 30.2262654,8.44464375 C30.1362575,8.14483125 30.1060685,7.51539375 30.3760921,7.27520625 C30.6455567,7.03558125 30.4661,6.19576875 30.8557614,6.46576875 C31.2448638,6.73576875 31.1850449,7.27520625 31.3650606,6.55576875 C31.5445173,5.83576875 31.125226,6.01576875 31.6048953,5.77614375 C32.0840055,5.53651875 31.5747063,5.29633125 31.5747063,5.29633125" id="Fill-14" fill="#FEFEFE"></path>
                            <path d="M31.5747063,5.29633125 C31.5747063,5.29633125 30.6757457,5.77614375 30.2564543,6.37576875 C29.8366039,6.97539375 29.0287693,8.46039375 28.8778244,9.16408125 C28.6978087,10.0038938 28.7581866,10.9635188 28.8476354,11.2931438 C28.9376433,11.6233313 28.8778244,12.2825813 28.9678323,11.8027688 C29.0578402,11.3229563 29.2971157,11.2335188 29.4469425,11.4129563 C29.5967693,11.5929563 30.1362575,12.2527688 29.8667929,11.2931438 C29.5967693,10.3335188 28.9678323,11.5029563 29.5671394,10.1838938 C30.1664465,8.86426875 30.3162732,8.74445625 30.2262654,8.44464375 C30.1362575,8.14483125 30.1060685,7.51539375 30.3760921,7.27520625 C30.6455567,7.03558125 30.4661,6.19576875 30.8557614,6.46576875 C31.2448638,6.73576875 31.1850449,7.27520625 31.3650606,6.55576875 C31.5445173,5.83576875 31.125226,6.01576875 31.6048953,5.77614375 C32.0840055,5.53651875 31.5747063,5.29633125 31.5747063,5.29633125 Z" id="Stroke-16" stroke="#FEFEFE" stroke-width="0.204"></path>
                            <path d="M39.8153465,10.8734625 C40.1748189,11.353275 40.084811,11.5029 40.084811,11.5029 C40.084811,11.5029 39.9053543,11.713275 39.9651732,11.8927125 C40.0249921,12.0727125 40.2050079,11.9230875 40.145189,12.282525 C40.084811,12.642525 39.9651732,12.912525 40.115,12.88215 C40.2648268,12.8523375 40.1748189,13.0919625 40.3548346,12.7927125 C40.5342913,12.4923375 39.7555276,12.4923375 40.6242992,12.4029 C41.4936299,12.3129 41.3438031,12.3129 41.403622,12.0130875 C41.4634409,11.713275 41.2834252,11.5029 41.0441496,11.3234625 C40.804315,11.1434625 39.455874,10.39365 39.8153465,10.8734625" id="Fill-22" fill="#FEFEFE"></path>
                            <path d="M39.8153465,10.8734625 C40.1748189,11.353275 40.084811,11.5029 40.084811,11.5029 C40.084811,11.5029 39.9053543,11.713275 39.9651732,11.8927125 C40.0249921,12.0727125 40.2050079,11.9230875 40.145189,12.282525 C40.084811,12.642525 39.9651732,12.912525 40.115,12.88215 C40.2648268,12.8523375 40.1748189,13.0919625 40.3548346,12.7927125 C40.5342913,12.4923375 39.7555276,12.4923375 40.6242992,12.4029 C41.4936299,12.3129 41.3438031,12.3129 41.403622,12.0130875 C41.4634409,11.713275 41.2834252,11.5029 41.0441496,11.3234625 C40.804315,11.1434625 39.455874,10.39365 39.8153465,10.8734625 Z" id="Stroke-24" stroke="#FEFEFE" stroke-width="0.204"></path>
                            <path d="M33.8521291,16.2705937 C33.942137,15.9707812 33.7621213,15.8807812 33.942137,15.9105937 C34.1215937,15.9409687 34.3016094,16.0309687 34.3916173,15.8509687 C34.4816252,15.6709687 34.3016094,15.6411562 34.601263,15.6411562 C34.9009165,15.6411562 35.1703811,15.1011562 35.1105622,15.5511562 C35.0507433,16.0005937 34.7209008,16.1805937 34.7209008,16.1805937 C34.7209008,16.1805937 34.3016094,16.3004062 34.1819717,16.4202187 C34.0617748,16.5405937 34.2417906,16.8404062 33.942137,16.7504062 C33.6424835,16.6604062 33.283011,16.4202187 33.4026488,16.4505937 C33.5222866,16.4804062 33.7621213,16.5704062 33.8521291,16.2705937" id="Fill-26" fill="#FEFEFE"></path>
                            <path d="M33.8521291,16.2705937 C33.942137,15.9707812 33.7621213,15.8807812 33.942137,15.9105937 C34.1215937,15.9409687 34.3016094,16.0309687 34.3916173,15.8509687 C34.4816252,15.6709687 34.3016094,15.6411562 34.601263,15.6411562 C34.9009165,15.6411562 35.1703811,15.1011562 35.1105622,15.5511562 C35.0507433,16.0005937 34.7209008,16.1805937 34.7209008,16.1805937 C34.7209008,16.1805937 34.3016094,16.3004062 34.1819717,16.4202187 C34.0617748,16.5405937 34.2417906,16.8404062 33.942137,16.7504062 C33.6424835,16.6604062 33.283011,16.4202187 33.4026488,16.4505937 C33.5222866,16.4804062 33.7621213,16.5704062 33.8521291,16.2705937 Z" id="Stroke-28" stroke="#FEFEFE" stroke-width="0.204"></path>
                            <path d="M31.5747063,5.29633125 C31.5747063,5.29633125 30.6757457,5.77614375 30.2564543,6.37576875 C29.8366039,6.97539375 29.0287693,8.46039375 28.8778244,9.16408125 C28.6978087,10.0038938 28.7581866,10.9635188 28.8476354,11.2931438 C28.9376433,11.6233313 28.8778244,12.2825813 28.9678323,11.8027688 C29.0578402,11.3229563 29.2971157,11.2335188 29.4469425,11.4129563 C29.5967693,11.5929563 30.0764386,12.3129563 29.806974,11.3533313 C29.5369504,10.3937063 28.9678323,11.3533313 29.5671394,10.0337063 C30.1664465,8.71464375 30.3162732,8.74445625 30.2262654,8.44464375 C30.1362575,8.14483125 29.9864307,7.57501875 30.2564543,7.33539375 C30.5259189,7.09520625 30.4661,6.19576875 30.8557614,6.46576875 C31.2448638,6.73576875 31.1850449,7.27520625 31.3650606,6.55576875 C31.5445173,5.83576875 31.125226,6.01576875 31.6048953,5.77614375 C32.0840055,5.53651875 31.5747063,5.29633125 31.5747063,5.29633125" id="Fill-30" fill="#D4DE1B"></path>
                            <path d="M35.8898291,8.4747375 C35.5303567,8.41455 35.7701913,8.2047375 35.4699787,8.3847375 C35.1703252,8.5647375 35.4403488,8.50455 35.1406953,8.3251125 C34.8410417,8.14455 34.8706717,8.174925 34.7510339,8.2947375 C34.6313961,8.41455 34.9908685,8.5647375 34.5413882,8.68455 C34.0919079,8.8043625 34.4211913,8.9843625 34.1215378,9.0743625 C33.8224433,9.1643625 33.6424276,8.77455 33.6424276,8.77455 C33.6424276,8.77455 33.2225772,8.6547375 33.1929472,8.9247375 C33.1627583,9.194175 32.713278,9.284175 32.5936402,9.4343625 C32.4734433,9.5839875 32.2039787,9.1643625 32.1139709,9.374175 C32.023963,9.5839875 31.7544984,9.0743625 31.6046717,9.4939875 C31.4548449,9.914175 31.8143173,10.9036125 31.9943331,11.113425 C32.1737898,11.3232375 32.5338213,10.8732375 32.8032858,11.5932375 C33.0727504,12.312675 33.4926008,12.492675 33.6424276,12.7924875 C33.7922543,13.0923 34.032089,12.9123 34.0919079,13.3324875 C34.1517268,13.7521125 34.1819157,13.781925 33.9118921,14.231925 C33.6424276,14.6813625 33.4624118,14.5317375 33.3724039,14.891175 C33.2829551,15.251175 33.342774,15.341175 33.1331283,15.611175 C32.9229236,15.8806125 33.312585,15.7309875 32.7730969,15.9408 C32.2341677,16.1506125 31.9641441,15.9706125 32.0843409,16.1506125 C32.2039787,16.3306125 32.8334748,16.6602375 32.9531126,16.4808 C33.0727504,16.3008 32.9531126,16.0909875 33.6424276,15.7608 C34.3317425,15.431175 34.6012071,15.01155 35.1703252,14.8613625 C35.7400024,14.711175 35.8300102,14.83155 36.1592937,14.051925 C36.4891362,13.2723 36.4891362,11.952675 37.2382701,11.952675 C37.9874039,11.952675 37.4182858,11.9228625 37.6575614,11.293425 C37.8973961,10.663425 37.5379236,10.6038 37.9874039,10.4536125 C38.4368843,10.3039875 38.3172465,10.2139875 38.4967031,10.2736125 C38.6767189,10.3338 38.7667268,10.2438 38.9461835,10.3636125 C39.1261992,10.483425 39.6354984,10.573425 39.6354984,10.573425 C39.6354984,10.573425 39.6053094,10.483425 39.935152,10.9936125 C40.2649945,11.5032375 40.6842858,11.53305 40.594278,11.89305 C40.5042701,12.25305 40.0849787,13.3021125 40.2946244,12.8824875 C40.5042701,12.4628625 40.4746402,12.222675 41.1639551,12.042675 C41.8532701,11.8632375 42.0925457,11.80305 42.3021913,11.62305 C42.5123961,11.44305 42.572215,11.203425 42.572215,11.203425 C42.572215,11.203425 42.6018449,10.483425 42.572215,9.8539875 C42.542026,9.22455 42.3323803,9.0743625 42.3021913,8.8943625 C42.2725614,8.7143625 42.2725614,8.3251125 42.1825535,8.4747375 C42.0925457,8.6243625 42.0327268,8.5343625 41.9427189,8.264925 C41.8532701,7.994925 42.1523646,8.0247375 41.913089,7.724925 C41.6732543,7.4251125 41.4334197,7.724925 41.193585,8.1147375 C40.9543094,8.50455 41.0437583,8.3251125 41.0141283,8.14455 C40.9839394,7.9651125 40.9839394,7.544925 40.9839394,7.544925 C40.9839394,7.544925 40.5344591,6.6454875 40.3846323,6.9751125 C40.2348055,7.3053 39.6953173,8.5343625 39.6953173,8.7143625 C39.6953173,8.8943625 39.6053094,9.5243625 39.3956638,9.7038 C39.1860181,9.8838 38.8863646,10.0936125 38.6465299,9.7639875 C38.4066953,9.4343625 37.4182858,9.22455 37.2679,9.3139875 C37.1186323,9.4039875 36.0994748,8.9843625 36.0994748,8.8347375 C36.0994748,8.68455 36.2493016,8.5343625 35.8898291,8.4747375" id="Fill-32" fill="#D4DE1B"></path>
                            <path d="M39.8153465,10.8734625 C40.1748189,11.353275 40.084811,11.5029 40.084811,11.5029 C40.084811,11.5029 39.9053543,11.713275 39.9651732,11.8927125 C40.0249921,12.0727125 40.2050079,11.9230875 40.145189,12.282525 C40.084811,12.642525 39.9651732,12.912525 40.115,12.88215 C40.2648268,12.8523375 40.1748189,13.0919625 40.3548346,12.7927125 C40.5342913,12.4923375 39.7555276,12.4923375 40.6242992,12.4029 C41.4936299,12.3129 41.3438031,12.3129 41.403622,12.0130875 C41.4634409,11.713275 41.2834252,11.5029 41.0441496,11.3234625 C40.804315,11.1434625 39.455874,10.39365 39.8153465,10.8734625" id="Fill-36" fill="#D4DE1B"></path>
                            <path d="M33.8521291,16.2705937 C33.942137,15.9707812 33.8823181,16.0905937 34.0617748,16.1209687 C34.2417906,16.1507812 34.3016094,16.0309687 34.3916173,15.8509687 C34.4816252,15.6709687 34.3016094,15.6411562 34.601263,15.6411562 C34.9009165,15.6411562 35.1703811,15.1011562 35.1105622,15.5511562 C35.0507433,16.0005937 34.7209008,16.1805937 34.7209008,16.1805937 C34.7209008,16.1805937 34.3016094,16.3004062 34.1819717,16.4202187 C34.0617748,16.5405937 34.2417906,16.8404062 33.942137,16.7504062 C33.6424835,16.6604062 33.283011,16.4202187 33.4026488,16.4505937 C33.5222866,16.4804062 33.7621213,16.5704062 33.8521291,16.2705937" id="Fill-38" fill="#D4DE1B"></path>
                            <path d="M34.0318654,7.875 C33.612574,7.725375 33.4325583,8.145 33.5521961,7.605 C33.6723929,7.0655625 32.983078,7.5751875 32.952889,7.3051875 C32.9232591,7.0351875 33.1630937,6.915375 33.2525425,6.67575 C33.3425504,6.4355625 33.582385,6.40575 33.7322118,6.4355625 C33.8820386,6.465375 33.8820386,6.49575 34.2717,6.2859375 C34.6613614,6.076125 34.5713535,5.986125 34.6015425,5.8359375 C34.6311724,5.6863125 34.930826,5.6863125 34.6909913,5.4163125 C34.4517157,5.1463125 33.7920307,5.266125 34.0318654,5.0563125 C34.2717,4.8465 34.2118811,4.7266875 34.5115346,4.8763125 C34.8111882,5.0265 34.6311724,5.1165 35.3501173,4.9365 C36.0696213,4.7565 35.4999441,4.696875 35.8297866,4.5765 C36.1596291,4.4566875 36.219448,4.606875 36.2792669,4.3065 C36.3390858,4.00725 36.249637,3.976875 36.4592827,4.0370625 C36.6689283,4.0966875 37.3280543,4.066875 37.8675425,4.2766875 C38.4070307,4.4865 39.1259756,4.7565 39.5754559,5.1165 C40.0249362,5.4759375 40.3844087,5.77575 40.5046055,5.95575 C40.6242433,6.13575 40.5342354,5.986125 40.1451331,6.076125 C39.7554717,6.166125 38.9163299,6.076125 39.1857945,6.31575 C39.4558181,6.555375 40.174763,6.58575 40.0847551,6.735375 C39.9953063,6.8855625 39.7856606,6.9755625 39.6352748,7.185375 C39.485448,7.3951875 39.9953063,8.474625 39.7856606,8.1748125 C39.5754559,7.875 38.7066843,7.0351875 38.4970386,7.275375 C38.2868339,7.515 38.4070307,7.3355625 38.6166764,7.545375 C38.826322,7.7551875 39.0359677,7.725375 39.1857945,8.0848125 C39.3356213,8.4448125 39.7252827,8.654625 38.9465189,8.5944375 C38.1671961,8.5348125 37.6578969,8.474625 37.6578969,8.294625 C37.6578969,8.114625 37.4482512,8.2648125 37.567889,7.7551875 C37.6875268,7.2455625 38.1370071,7.3355625 37.6277079,7.185375 C37.1184087,7.0351875 37.2978654,6.825375 37.0585898,7.0655625 C36.8187551,7.3051875 36.6991173,7.185375 36.7885661,7.545375 C36.878574,7.9048125 37.1485976,8.024625 36.7885661,7.965 C36.4290937,7.9048125 36.4290937,8.0848125 36.249637,7.9948125 C36.0696213,7.9048125 35.7995976,8.055 36.0696213,7.635375 C36.3390858,7.2151875 36.3094559,7.005375 36.1294402,6.915375 C35.9499835,6.825375 35.8599756,6.735375 35.6201409,6.67575 C35.3803063,6.6155625 35.4401252,5.986125 34.8111882,6.67575 C34.1816921,7.365375 34.4517157,7.0351875 34.3315189,7.365375 C34.2118811,7.695 34.301889,7.8148125 34.301889,7.8148125 C34.301889,7.8148125 34.4517157,8.024625 34.0318654,7.875" id="Fill-40" fill="#FEFEFE"></path>
                            <path d="M34.0318654,7.875 C33.612574,7.725375 33.4325583,8.145 33.5521961,7.605 C33.6723929,7.0655625 32.983078,7.5751875 32.952889,7.3051875 C32.9232591,7.0351875 33.1630937,6.915375 33.2525425,6.67575 C33.3425504,6.4355625 33.582385,6.40575 33.7322118,6.4355625 C33.8820386,6.465375 33.8820386,6.49575 34.2717,6.2859375 C34.6613614,6.076125 34.5713535,5.986125 34.6015425,5.8359375 C34.6311724,5.6863125 34.930826,5.6863125 34.6909913,5.4163125 C34.4517157,5.1463125 33.7920307,5.266125 34.0318654,5.0563125 C34.2717,4.8465 34.2118811,4.7266875 34.5115346,4.8763125 C34.8111882,5.0265 34.6311724,5.1165 35.3501173,4.9365 C36.0696213,4.7565 35.4999441,4.696875 35.8297866,4.5765 C36.1596291,4.4566875 36.219448,4.606875 36.2792669,4.3065 C36.3390858,4.00725 36.249637,3.976875 36.4592827,4.0370625 C36.6689283,4.0966875 37.3280543,4.066875 37.8675425,4.2766875 C38.4070307,4.4865 39.1259756,4.7565 39.5754559,5.1165 C40.0249362,5.4759375 40.3844087,5.77575 40.5046055,5.95575 C40.6242433,6.13575 40.5342354,5.986125 40.1451331,6.076125 C39.7554717,6.166125 38.9163299,6.076125 39.1857945,6.31575 C39.4558181,6.555375 40.174763,6.58575 40.0847551,6.735375 C39.9953063,6.8855625 39.7856606,6.9755625 39.6352748,7.185375 C39.485448,7.3951875 39.9953063,8.474625 39.7856606,8.1748125 C39.5754559,7.875 38.7066843,7.0351875 38.4970386,7.275375 C38.2868339,7.515 38.4070307,7.3355625 38.6166764,7.545375 C38.826322,7.7551875 39.0359677,7.725375 39.1857945,8.0848125 C39.3356213,8.4448125 39.7252827,8.654625 38.9465189,8.5944375 C38.1671961,8.5348125 37.6578969,8.474625 37.6578969,8.294625 C37.6578969,8.114625 37.4482512,8.2648125 37.567889,7.7551875 C37.6875268,7.2455625 38.1370071,7.3355625 37.6277079,7.185375 C37.1184087,7.0351875 37.2978654,6.825375 37.0585898,7.0655625 C36.8187551,7.3051875 36.6991173,7.185375 36.7885661,7.545375 C36.878574,7.9048125 37.1485976,8.024625 36.7885661,7.965 C36.4290937,7.9048125 36.4290937,8.0848125 36.249637,7.9948125 C36.0696213,7.9048125 35.7995976,8.055 36.0696213,7.635375 C36.3390858,7.2151875 36.3094559,7.005375 36.1294402,6.915375 C35.9499835,6.825375 35.8599756,6.735375 35.6201409,6.67575 C35.3803063,6.6155625 35.4401252,5.986125 34.8111882,6.67575 C34.1816921,7.365375 34.4517157,7.0351875 34.3315189,7.365375 C34.2118811,7.695 34.301889,7.8148125 34.301889,7.8148125 C34.301889,7.8148125 34.4517157,8.024625 34.0318654,7.875 Z" id="Stroke-42" stroke="#FEFEFE" stroke-width="0.204"></path>
                            <path d="M34.0318654,7.875 C33.612574,7.725375 33.4325583,8.145 33.5521961,7.605 C33.6723929,7.0655625 32.983078,7.5751875 32.952889,7.3051875 C32.9232591,7.0351875 33.1630937,6.915375 33.2525425,6.67575 C33.3425504,6.4355625 33.582385,6.40575 33.7322118,6.4355625 C33.8820386,6.465375 33.8820386,6.49575 34.2717,6.2859375 C34.6613614,6.076125 34.5713535,5.986125 34.6015425,5.8359375 C34.6311724,5.6863125 34.930826,5.6863125 34.6909913,5.4163125 C34.4517157,5.1463125 33.7920307,5.266125 34.0318654,5.0563125 C34.2717,4.8465 34.2118811,4.7266875 34.5115346,4.8763125 C34.8111882,5.0265 34.6311724,5.1165 35.3501173,4.9365 C36.0696213,4.7565 35.4999441,4.696875 35.8297866,4.5765 C36.1596291,4.4566875 36.219448,4.606875 36.2792669,4.3065 C36.3390858,4.00725 36.249637,3.976875 36.4592827,4.0370625 C36.6689283,4.0966875 37.3280543,4.066875 37.8675425,4.2766875 C38.4070307,4.4865 39.1259756,4.7565 39.5754559,5.1165 C40.0249362,5.4759375 40.3844087,5.77575 40.5046055,5.95575 C40.6242433,6.13575 40.5342354,5.986125 40.1451331,6.076125 C39.7554717,6.166125 38.9163299,6.076125 39.1857945,6.31575 C39.4558181,6.555375 40.0551252,6.7055625 39.9651173,6.85575 C39.8751094,7.005375 39.7554717,6.8855625 39.6056449,7.095375 C39.4558181,7.3051875 39.9953063,8.474625 39.7856606,8.1748125 C39.5754559,7.875 38.7066843,7.0351875 38.4970386,7.275375 C38.2868339,7.515 38.4070307,7.3355625 38.6166764,7.545375 C38.826322,7.7551875 38.856511,7.6651875 39.0063378,8.024625 C39.1561646,8.384625 39.7252827,8.654625 38.9465189,8.5944375 C38.1671961,8.5348125 37.6578969,8.474625 37.6578969,8.294625 C37.6578969,8.114625 37.4482512,8.2648125 37.567889,7.7551875 C37.6875268,7.2455625 38.1370071,7.3355625 37.6277079,7.185375 C37.1184087,7.0351875 37.2978654,6.825375 37.0585898,7.0655625 C36.8187551,7.3051875 36.6991173,7.185375 36.7885661,7.545375 C36.878574,7.9048125 37.1485976,8.024625 36.7885661,7.965 C36.4290937,7.9048125 36.4290937,8.0848125 36.249637,7.9948125 C36.0696213,7.9048125 35.7995976,8.055 36.0696213,7.635375 C36.3390858,7.2151875 36.3094559,7.005375 36.1294402,6.915375 C35.9499835,6.825375 35.8599756,6.735375 35.6201409,6.67575 C35.3803063,6.6155625 35.4401252,5.986125 34.8111882,6.67575 C34.1816921,7.365375 34.4517157,7.0351875 34.3315189,7.365375 C34.2118811,7.695 34.301889,7.8148125 34.301889,7.8148125 C34.301889,7.8148125 34.4517157,8.024625 34.0318654,7.875" id="Fill-44" fill="#D4DE1B"></path>
                            <path d="M30.2322472,5.96745 L29.6402079,6.564825 C29.6402079,6.564825 23.7170189,6.0366375 22.5793417,6.94845 C21.4416646,7.8602625 21.4735307,8.1387 21.7715071,8.751825 C22.0694835,9.3655125 23.109326,10.6412625 24.590263,11.38545 C26.0717591,12.1302 28.1234913,13.1517 29.4836724,13.60845 C30.8438535,14.0646375 34.3871449,15.1300125 35.1474598,15.3055125 C35.9072157,15.481575 40.0218614,16.2133875 40.9124362,16.28145 C41.803011,16.350075 45.1634913,16.5396375 46.4096252,16.3422 C47.6557591,16.1447625 49.1920425,15.7347 49.4145465,15.301575 C49.6370504,14.86845 49.6907197,14.62995 49.6912787,14.3245125 C49.6918378,14.019075 49.2937906,12.90645 48.0789638,12.1915125 C46.864137,11.476575 42.6935858,9.687825 42.6935858,9.687825 L42.736074,8.9593875 C42.736074,8.9593875 47.9414362,11.168325 48.4171921,11.4962625 C48.892948,11.8236375 50.0345386,12.3777 50.6897512,13.305825 C51.3455228,14.2333875 51.4070189,14.5152 51.296885,15.0220125 C51.1867512,15.528825 50.596948,16.0435125 49.8802394,16.3303875 C49.1640898,16.6172625 47.0860819,17.0582625 45.2043024,17.03295 C43.3225228,17.007075 40.8050976,16.7578875 40.1867827,16.6588875 C39.5684677,16.5598875 36.0956173,15.9912 35.5427118,15.8382 C34.9898063,15.6852 32.3337354,15.0237 31.0031843,14.5708875 C29.672074,14.1175125 27.7355071,13.4447625 26.6470268,12.9576375 C25.5591055,12.4705125 23.4894835,11.3247 22.845452,10.8865125 C22.2008614,10.4488875 20.6970031,9.0297 20.5499717,8.4025125 C20.4029402,7.7758875 20.5700976,7.0002 21.2985465,6.5923875 C22.0269953,6.1851375 23.6845937,5.7582 25.066578,5.6980125 C26.4485622,5.637825 30.2322472,5.96745 30.2322472,5.96745" id="Fill-46" fill="#FEFEFE"></path>
                            <path d="M30.2322472,5.96745 L29.6402079,6.564825 C29.6402079,6.564825 23.7170189,6.0366375 22.5793417,6.94845 C21.4416646,7.8602625 21.4735307,8.1387 21.7715071,8.751825 C22.0694835,9.3655125 23.109326,10.6412625 24.590263,11.38545 C26.0717591,12.1302 28.1234913,13.1517 29.4836724,13.60845 C30.8438535,14.0646375 34.3871449,15.1300125 35.1474598,15.3055125 C35.9072157,15.481575 40.0218614,16.2133875 40.9124362,16.28145 C41.803011,16.350075 45.1634913,16.5396375 46.4096252,16.3422 C47.6557591,16.1447625 49.1920425,15.7347 49.4145465,15.301575 C49.6370504,14.86845 49.6907197,14.62995 49.6912787,14.3245125 C49.6918378,14.019075 49.2937906,12.90645 48.0789638,12.1915125 C46.864137,11.476575 42.6935858,9.687825 42.6935858,9.687825 L42.736074,8.9593875 C42.736074,8.9593875 47.9414362,11.168325 48.4171921,11.4962625 C48.892948,11.8236375 50.0345386,12.3777 50.6897512,13.305825 C51.3455228,14.2333875 51.4070189,14.5152 51.296885,15.0220125 C51.1867512,15.528825 50.596948,16.0435125 49.8802394,16.3303875 C49.1640898,16.6172625 47.0860819,17.0582625 45.2043024,17.03295 C43.3225228,17.007075 40.8050976,16.7578875 40.1867827,16.6588875 C39.5684677,16.5598875 36.0956173,15.9912 35.5427118,15.8382 C34.9898063,15.6852 32.3337354,15.0237 31.0031843,14.5708875 C29.672074,14.1175125 27.7355071,13.4447625 26.6470268,12.9576375 C25.5591055,12.4705125 23.4894835,11.3247 22.845452,10.8865125 C22.2008614,10.4488875 20.6970031,9.0297 20.5499717,8.4025125 C20.4029402,7.7758875 20.5700976,7.0002 21.2985465,6.5923875 C22.0269953,6.1851375 23.6845937,5.7582 25.066578,5.6980125 C26.4485622,5.637825 30.2322472,5.96745 30.2322472,5.96745 Z" id="Stroke-48" stroke="#FEFEFE" stroke-width="0.204"></path>
                            <path d="M30.2083756,5.79673125 L29.5945331,6.28779375 C29.5945331,6.28779375 24.4271866,5.81023125 23.0060685,6.56848125 C21.7235961,7.25248125 21.6453283,8.21885625 21.9433047,8.83198125 C22.2412811,9.44510625 23.0088638,10.4469187 24.4898008,11.1911062 C25.9712969,11.9358562 28.0230291,12.9573562 29.3837693,13.4141062 C30.7439504,13.8702937 34.2866827,14.9351062 35.0469976,15.1111687 C35.8073126,15.2872312 39.9213992,16.0190437 40.811974,16.0871062 C41.7025488,16.1557312 45.0635882,16.3452937 46.309722,16.1478562 C47.5552969,15.9504187 49.0915803,15.5403562 49.3140843,15.1072312 C49.5371472,14.6741062 49.5902575,14.4356062 49.5908165,14.1301687 C49.5913756,13.8247312 49.1938874,12.7121062 47.9785016,11.9971687 C46.7636748,11.2822312 42.9604228,9.40854375 42.9604228,9.40854375 L43.002911,8.68010625 C43.002911,8.68010625 47.840974,10.9739812 48.317289,11.3019187 C48.7930449,11.6292937 49.9340764,12.1833562 50.589848,13.1114812 C51.2450606,14.0390437 51.3065567,14.3208562 51.1964228,14.8276687 C51.086289,15.3344812 50.4964858,15.8491687 49.7803362,16.1360437 C49.0636276,16.4229187 47.0985488,16.6321687 45.2167693,16.6068562 C43.3349898,16.5809812 40.669974,16.3154812 40.0516591,16.2164812 C39.4333441,16.1174812 36.0667142,15.6826687 35.5138087,15.5296687 C34.9609031,15.3766687 32.2338323,14.8293562 30.902722,14.3765437 C29.5721709,13.9231687 27.6350449,13.2504187 26.5471236,12.7632937 C25.4586433,12.2761687 23.3895803,11.1303562 22.7449898,10.6921687 C22.1009583,10.2539812 20.5971,8.83535625 20.4500685,8.20816875 C20.303037,7.58154375 20.4696354,6.80585625 21.1980843,6.39804375 C21.9265331,5.99079375 23.5846906,5.56385625 24.9661157,5.50366875 C26.3481,5.44291875 30.2083756,5.79673125 30.2083756,5.79673125" id="Fill-50" fill="#D4DE1B"></path>
                            <path d="M27.1181984,26.5766625 C27.1181984,26.5766625 27.2003795,26.8995375 27.4262378,26.8995375 C28.2167417,26.8995375 27.8880173,26.619975 29.274474,26.813475 C29.5003323,26.83485 29.8391197,26.361225 29.8391197,26.361225 L29.7362535,25.607475 C29.7362535,25.607475 29.2331039,25.2199125 28.5040961,25.305975 C27.4776709,25.43535 28.3911669,25.3706625 27.631411,25.32735 C27.3133087,25.305975 27.1181984,25.7149125 27.1181984,25.7149125 L27.1181984,26.5766625 Z" id="Fill-52" fill="#FEFEFE"></path>
                            <path d="M4.88312283,22.41675 C4.90045354,21.7378125 4.84846142,21.0594375 5.19731181,20.6859375 L6.4194063,20.5335 C9.59260315,20.6915625 10.452989,20.4316875 10.452989,22.7559375 C10.452989,25.063875 7.90369764,25.3861875 6.1577685,25.1825625 L5.30241417,25.08075 C4.93567402,24.910875 4.84846142,23.468625 4.88312283,22.41675 M5.2671937,28.7623125 C5.2671937,27.9478125 5.37229606,26.6585625 5.37229606,26.6585625 C5.42428819,26.2681875 5.77369764,26.506125 6.00067402,26.4718125 C6.26231181,26.4211875 6.71626457,26.37 6.71626457,26.37 C9.70217795,26.33625 10.9768236,27.3200625 10.9768236,28.8984375 C10.9768236,30.3406875 9.98170551,31.9185 6.68160315,31.6636875 L5.3544063,31.561875 C4.77857953,31.4263125 5.2671937,29.271375 5.2671937,28.7623125 M4.34195748,32.54625 L7.3971937,32.6986875 C11.1864693,32.8685625 11.8847291,30.5780625 11.8847291,29.017125 C11.8847291,27.3375 10.9416031,26.2175625 9.31810709,25.74225 C10.7325165,25.4030625 11.5705402,24.3 11.5705402,22.8920625 C11.5705402,21.4155 10.6626346,19.549125 7.18810709,19.4985 L4.55160315,19.4473125 C2.90686299,19.38825 3.53859528,23.1463125 3.46871339,25.572375 C3.38150079,28.3044375 3.03209134,32.783625 4.34195748,32.54625" id="Fill-54" fill="#FEFEFE"></path>
                            <path d="M4.88312283,22.41675 C4.90045354,21.7378125 4.84846142,21.0594375 5.19731181,20.6859375 L6.4194063,20.5335 C9.59260315,20.6915625 10.452989,20.4316875 10.452989,22.7559375 C10.452989,25.063875 7.90369764,25.3861875 6.1577685,25.1825625 L5.30241417,25.08075 C4.93567402,24.910875 4.84846142,23.468625 4.88312283,22.41675 Z M5.2671937,28.7623125 C5.2671937,27.9478125 5.37229606,26.6585625 5.37229606,26.6585625 C5.42428819,26.2681875 5.77369764,26.506125 6.00067402,26.4718125 C6.26231181,26.4211875 6.71626457,26.37 6.71626457,26.37 C9.70217795,26.33625 10.9768236,27.3200625 10.9768236,28.8984375 C10.9768236,30.3406875 9.98170551,31.9185 6.68160315,31.6636875 L5.3544063,31.561875 C4.77857953,31.4263125 5.2671937,29.271375 5.2671937,28.7623125 Z M4.34195748,32.54625 L7.3971937,32.6986875 C11.1864693,32.8685625 11.8847291,30.5780625 11.8847291,29.017125 C11.8847291,27.3375 10.9416031,26.2175625 9.31810709,25.74225 C10.7325165,25.4030625 11.5705402,24.3 11.5705402,22.8920625 C11.5705402,21.4155 10.6626346,19.549125 7.18810709,19.4985 L4.55160315,19.4473125 C2.90686299,19.38825 3.53859528,23.1463125 3.46871339,25.572375 C3.38150079,28.3044375 3.03209134,32.783625 4.34195748,32.54625 Z" id="Stroke-56" stroke="#FEFEFE" stroke-width="0.698"></path>
                            <path d="M15.5108724,32.3620875 C15.5902583,31.0672125 15.4158331,29.7959625 15.4158331,29.508525 C15.4158331,26.774775 15.273274,23.38515 15.3207937,20.0275875 C15.3364472,19.500525 13.975148,19.7238375 13.975148,20.108025 C14.0226677,26.0069625 14.3709591,27.78165 14.1333606,32.4982125 C14.1177071,32.9617125 15.4790063,32.8098375 15.5108724,32.3620875" id="Fill-58" fill="#FEFEFE"></path>
                            <path d="M21.8182441,20.3636813 C23.6094567,20.3636813 25.7159764,21.6703688 25.7159764,25.6742438 C25.7159764,29.6786813 23.6094567,31.8336188 21.8182441,31.8336188 C20.0270315,31.8336188 18.1692913,29.8485563 18.1692913,25.8441188 C18.1692913,21.8396813 20.0270315,20.3636813 21.8182441,20.3636813 M21.8182441,19.2268688 C19.1314252,19.2268688 17.1406299,21.7547438 17.1406299,26.0983688 C17.1406299,30.4419938 19.1314252,32.9704313 21.8182441,32.9704313 C24.505063,32.9704313 26.4958583,30.4419938 26.4958583,26.0983688 C26.4958583,21.7547438 24.505063,19.2268688 21.8182441,19.2268688" id="Fill-60" fill="#FEFEFE"></path>
                            <path d="M21.8182441,20.3636813 C23.6094567,20.3636813 25.7159764,21.6703688 25.7159764,25.6742438 C25.7159764,29.6786813 23.6094567,31.8336188 21.8182441,31.8336188 C20.0270315,31.8336188 18.1692913,29.8485563 18.1692913,25.8441188 C18.1692913,21.8396813 20.0270315,20.3636813 21.8182441,20.3636813 Z M21.8182441,19.2268688 C19.1314252,19.2268688 17.1406299,21.7547438 17.1406299,26.0983688 C17.1406299,30.4419938 19.1314252,32.9704313 21.8182441,32.9704313 C24.505063,32.9704313 26.4958583,30.4419938 26.4958583,26.0983688 C26.4958583,21.7547438 24.505063,19.2268688 21.8182441,19.2268688 Z" id="Stroke-62" stroke="#FEFEFE" stroke-width="0.68"></path>
                            <path d="M30.4875677,23.0218875 C30.2125126,23.0218875 30.5289378,22.30695 30.8179693,22.4008875 C30.9415205,22.4481375 31.1891819,22.69395 31.1478118,22.7991375 C31.1891819,22.8576375 31.1204181,22.8812625 31.1064417,22.8812625 C30.7078354,22.8812625 30.6664654,23.0218875 30.4875677,23.0218875 M30.5289378,23.7132 C30.5977016,25.9041375 30.5289378,31.5392625 30.460174,32.32395 C30.4327803,32.6991375 30.6938591,32.862825 30.6938591,32.862825 C30.6938591,32.862825 30.9828906,32.9331375 31.1478118,32.910075 C31.6291583,32.82795 31.4916307,31.8672 31.4916307,31.8672 L31.5603945,28.6570125 C32.0696937,28.3757625 32.661174,29.582325 33.5003157,29.582325 C34.5317724,29.582325 36.2788197,28.7740125 36.2788197,26.290575 C36.2788197,23.748075 34.7660165,22.7406375 33.4589457,22.7406375 C32.7299378,22.7406375 31.9181898,22.9167 31.4228669,23.3616375 L31.1478118,22.9870125 C31.1478118,22.9870125 30.5015441,22.7642625 30.5289378,23.7132 M31.3541031,25.52895 C31.3814969,24.8961375 31.697922,23.93595 31.697922,23.93595 C32.0283236,23.37345 32.6471976,23.4786375 33.472922,23.4786375 C34.9723079,23.4786375 35.1512055,25.29495 35.1512055,26.26695 C35.1512055,28.164825 34.0917961,28.785825 33.3488118,28.785825 C32.5924102,28.785825 32.0009299,28.24695 31.697922,27.6962625 C31.697922,27.6962625 31.3127331,26.3845125 31.3541031,25.52895" id="Fill-64" fill="#FEFEFE"></path>
                            <path d="M30.4875677,23.0218875 C30.2125126,23.0218875 30.5289378,22.30695 30.8179693,22.4008875 C30.9415205,22.4481375 31.1891819,22.69395 31.1478118,22.7991375 C31.1891819,22.8576375 31.1204181,22.8812625 31.1064417,22.8812625 C30.7078354,22.8812625 30.6664654,23.0218875 30.4875677,23.0218875 Z M30.5289378,23.7132 C30.5977016,25.9041375 30.5289378,31.5392625 30.460174,32.32395 C30.4327803,32.6991375 30.6938591,32.862825 30.6938591,32.862825 C30.6938591,32.862825 30.9828906,32.9331375 31.1478118,32.910075 C31.6291583,32.82795 31.4916307,31.8672 31.4916307,31.8672 L31.5603945,28.6570125 C32.0696937,28.3757625 32.661174,29.582325 33.5003157,29.582325 C34.5317724,29.582325 36.2788197,28.7740125 36.2788197,26.290575 C36.2788197,23.748075 34.7660165,22.7406375 33.4589457,22.7406375 C32.7299378,22.7406375 31.9181898,22.9167 31.4228669,23.3616375 L31.1478118,22.9870125 C31.1478118,22.9870125 30.5015441,22.7642625 30.5289378,23.7132 Z M31.3541031,25.52895 C31.3814969,24.8961375 31.697922,23.93595 31.697922,23.93595 C32.0283236,23.37345 32.6471976,23.4786375 33.472922,23.4786375 C34.9723079,23.4786375 35.1512055,25.29495 35.1512055,26.26695 C35.1512055,28.164825 34.0917961,28.785825 33.3488118,28.785825 C32.5924102,28.785825 32.0009299,28.24695 31.697922,27.6962625 C31.697922,27.6962625 31.3127331,26.3845125 31.3541031,25.52895 Z" id="Stroke-66" stroke="#FEFEFE"></path>
                            <path d="M38.3008102,20.2453313 C38.2320465,21.1942688 38.2180701,22.1083313 38.2180701,22.3187063 C38.2180701,24.3223313 38.3421803,26.8057688 38.3008102,29.2661438 C38.2868339,29.6531438 39.4703535,29.4888938 39.4703535,29.2076438 C39.4289835,24.8848313 39.1259756,23.5843313 39.332826,20.1283313 C39.3462433,19.7885813 38.3282039,19.9173938 38.3008102,20.2453313 M38.6999756,24.2756437 C38.6999756,24.1350187 38.6720228,24.0528937 38.6172354,23.9240812 C38.521078,23.6895187 38.5898417,24.8375812 38.6586055,24.5917687 C38.6859992,24.4747687 38.6999756,24.4044562 38.6999756,24.2756437" id="Fill-68" fill="#FEFEFE"></path>
                            <path d="M38.3008102,20.1772688 C38.2320465,21.1262063 38.2180701,22.0402688 38.2180701,22.2506438 C38.2180701,24.2542688 38.3421803,26.7377063 38.3008102,29.1980813 C38.2868339,29.5850813 39.4703535,29.4208313 39.4703535,29.1395813 C39.4289835,24.8167688 39.1259756,23.5162688 39.332826,20.0602688 C39.3462433,19.7205188 38.3282039,19.8493313 38.3008102,20.1772688 Z M38.6999756,24.2075812 C38.6999756,24.0669562 38.6720228,23.9848312 38.6172354,23.8560187 C38.521078,23.6214562 38.5898417,24.7695187 38.6586055,24.5237062 C38.6859992,24.4067062 38.6999756,24.3363937 38.6999756,24.2075812 Z" id="Stroke-70" stroke="#FEFEFE"></path>
                            <path d="M46.3138031,29.0671313 C46.1622992,28.8561938 46.3138031,28.7858813 46.3138031,28.7858813 C46.2036693,28.7391938 46.8231024,29.7933188 46.3138031,29.0671313 L46.3138031,29.0671313 Z M46.038748,26.2788188 C45.8738268,26.0678813 46.1762756,25.0604438 46.1762756,25.0604438 C46.0661417,25.0137563 46.2450394,26.5364438 46.038748,26.2788188 L46.038748,26.2788188 Z M42.3243858,28.7858813 L42.4893071,28.8325688 C42.4893071,29.3483813 42.4619134,28.8095063 42.3797323,28.9731938 C42.3797323,28.9731938 42.1320709,29.2544438 42.3243858,28.7858813 L42.3243858,28.7858813 Z M45.9839606,25.7635688 L46.0661417,27.6614438 C46.1762756,28.0011938 44.7590709,28.7155688 43.9065118,28.7155688 C43.259685,28.7155688 42.4893071,28.1766938 42.4893071,27.6378188 C42.4893071,26.4779438 46.0935354,25.0953188 45.997378,25.6814438 L45.9839606,25.7635688 Z M46.9326772,29.2780688 C47.2077323,29.2662563 47.0981575,27.9657563 47.0841811,27.8020688 L46.9192598,24.9198188 C46.8504961,23.4438188 45.6535591,22.7406938 44.6215433,22.7406938 C43.4659764,22.7406938 41.8704331,23.9360063 42.2008346,24.0760688 L42.3243858,24.3224438 C42.792315,24.7791938 43.1775039,23.6193188 44.5941496,23.5141313 C45.8598504,23.4201938 46.0661417,23.9123813 46.0661417,24.6503813 L46.0661417,25.0137563 L45.7223228,25.0953188 C44.0440394,25.4823188 41.7602992,25.8805688 41.7602992,27.7317563 C41.7602992,28.7510063 42.6961575,29.5823813 43.8651417,29.5823813 C44.7590709,29.5823813 45.2823465,28.7628188 46.0661417,28.5749438 L46.3138031,29.3483813 L46.9326772,29.2780688 Z" id="Fill-72" fill="#FEFEFE"></path>
                            <path d="M46.3138031,29.0671313 C46.1622992,28.8561938 46.3138031,28.7858813 46.3138031,28.7858813 C46.2036693,28.7391938 46.8231024,29.7933188 46.3138031,29.0671313 Z M46.038748,26.2788188 C45.8738268,26.0678813 46.1762756,25.0604438 46.1762756,25.0604438 C46.0661417,25.0137563 46.2450394,26.5364438 46.038748,26.2788188 Z M42.3243858,28.7858813 L42.4893071,28.8325688 C42.4893071,29.3483813 42.4619134,28.8095063 42.3797323,28.9731938 C42.3797323,28.9731938 42.1320709,29.2544438 42.3243858,28.7858813 Z M45.9839606,25.7635688 L46.0661417,27.6614438 C46.1762756,28.0011938 44.7590709,28.7155688 43.9065118,28.7155688 C43.259685,28.7155688 42.4893071,28.1766938 42.4893071,27.6378188 C42.4893071,26.4779438 46.0935354,25.0953188 45.997378,25.6814438 L45.9839606,25.7635688 Z M46.9326772,29.2780688 C47.2077323,29.2662563 47.0981575,27.9657563 47.0841811,27.8020688 L46.9192598,24.9198188 C46.8504961,23.4438188 45.6535591,22.7406938 44.6215433,22.7406938 C43.4659764,22.7406938 41.8704331,23.9360063 42.2008346,24.0760688 L42.3243858,24.3224438 C42.792315,24.7791938 43.1775039,23.6193188 44.5941496,23.5141313 C45.8598504,23.4201938 46.0661417,23.9123813 46.0661417,24.6503813 L46.0661417,25.0137563 L45.7223228,25.0953188 C44.0440394,25.4823188 41.7602992,25.8805688 41.7602992,27.7317563 C41.7602992,28.7510063 42.6961575,29.5823813 43.8651417,29.5823813 C44.7590709,29.5823813 45.2823465,28.7628188 46.0661417,28.5749438 L46.3138031,29.3483813 L46.9326772,29.2780688 Z" id="Stroke-74" stroke="#FEFEFE"></path>
                            <path d="M50.6615748,24.4746563 C51.0881339,24.0409688 51.4045591,23.0802188 52.6149134,23.4908438 C53.6877402,23.8536563 53.6189764,24.6270938 53.6877402,25.2829688 C53.6877402,25.2829688 53.8392441,26.1852188 53.8532205,26.7589688 C53.8666378,27.4272188 53.5502126,28.6455938 53.4814488,29.1608438 C53.4406378,29.4066563 53.757063,29.3363438 53.757063,29.3363438 L54.2110157,29.2778438 C54.2110157,29.2778438 54.3485433,29.0556563 54.4033307,28.9262813 C55.1049449,27.4975313 54.6923622,24.9314063 54.6923622,24.9314063 C54.8024961,23.2444688 53.8258268,22.7410313 52.7524409,22.7410313 C51.8859055,22.7410313 51.2944252,23.1623438 50.6615748,23.5960313 L50.5240472,23.2208438 C50.5240472,23.2208438 50.4966535,22.9986563 50.4139134,22.8929063 C50.2350157,22.6819688 49.588748,22.8107813 49.588748,22.8107813 L49.7950394,29.1608438 C49.7950394,29.1608438 49.9873543,29.5242188 50.207622,29.5124063 C50.399937,29.5005938 50.5240472,29.1608438 50.5240472,29.1608438 L50.6615748,24.4746563 Z" id="Fill-76" fill="#FEFEFE"></path>
                            <path d="M50.6615748,24.4746563 C51.0881339,24.0409688 51.4045591,23.0802188 52.6149134,23.4908438 C53.6877402,23.8536563 53.6189764,24.6270938 53.6877402,25.2829688 C53.6877402,25.2829688 53.8392441,26.1852188 53.8532205,26.7589688 C53.8666378,27.4272188 53.5502126,28.6455938 53.4814488,29.1608438 C53.4406378,29.4066563 53.757063,29.3363438 53.757063,29.3363438 L54.2110157,29.2778438 C54.2110157,29.2778438 54.3485433,29.0556563 54.4033307,28.9262813 C55.1049449,27.4975313 54.6923622,24.9314063 54.6923622,24.9314063 C54.8024961,23.2444688 53.8258268,22.7410313 52.7524409,22.7410313 C51.8859055,22.7410313 51.2944252,23.1623438 50.6615748,23.5960313 L50.5240472,23.2208438 C50.5240472,23.2208438 50.4966535,22.9986563 50.4139134,22.8929063 C50.2350157,22.6819688 49.588748,22.8107813 49.588748,22.8107813 L49.7950394,29.1608438 C49.7950394,29.1608438 49.9873543,29.5242188 50.207622,29.5124063 C50.399937,29.5005938 50.5240472,29.1608438 50.5240472,29.1608438 L50.6615748,24.4746563 Z" id="Stroke-78" stroke="#FEFEFE"></path>
                            <path d="M61.3956567,25.9976812 C61.2307354,25.7867437 61.4504441,25.4824312 61.4504441,25.4824312 C61.3408693,25.4351812 61.601948,26.2553062 61.3956567,25.9976812 M60.3228299,25.6224937 C59.3321843,25.7749312 57.7086882,25.8688687 57.7086882,25.8688687 C57.3374756,25.8806812 57.5437669,24.2634937 58.5478299,23.7718687 C58.8642551,23.6194312 59.3735543,23.3033062 59.8962709,23.3966812 C60.3228299,23.4788062 61.0652551,23.6779312 61.2027827,24.1234312 C61.2441528,24.2522437 61.3956567,24.1701187 61.368263,24.4862437 C61.3129165,25.0723687 61.5471606,25.6343062 61.368263,25.6815562 C61.368263,25.6815562 60.6392551,25.5758062 60.3228299,25.6224937 M58.6445465,26.3256187 C59.2908142,25.9740562 62.180011,26.1731812 62.180011,26.1731812 C62.3997197,26.1383062 62.4136961,25.5054937 62.1660346,24.7556812 C62.1246646,24.6504937 62.0698772,24.1701187 62.0145307,24.0761812 C61.9043969,23.9006812 61.8770031,24.0413062 61.7668693,23.8652437 C61.560578,23.5254937 61.3816803,23.2211812 61.0104677,23.1857437 C60.9003339,23.1739312 60.8175937,22.8932437 60.7628063,22.8696187 C60.4324047,22.7171812 60.1439323,22.7408062 59.7033969,22.7408062 C59.1532866,22.7408062 58.5757827,22.8932437 58.1626409,23.0569312 C57.8327984,23.1857437 57.970326,23.1857437 57.9149795,23.2560562 C57.4202157,23.9006812 56.8007827,24.6504937 56.6632551,26.1619312 C56.6358614,26.5016812 56.581074,26.8296187 56.6632551,27.0990562 C57.2273417,28.8208687 58.2453811,29.5824937 59.7033969,29.5824937 C61.0104677,29.5824937 62.3309559,27.9540562 61.8635858,27.9658687 L61.7808457,27.8134312 C61.4230504,27.7200562 59.9510583,29.2545562 59.6212157,29.1375562 C57.1356567,28.4766187 57.5437669,27.2745562 57.5437669,26.3374312 C57.5437669,26.3374312 58.2867512,26.5129312 58.6445465,26.3256187" id="Fill-80" fill="#FEFEFE"></path>
                            <path d="M61.3956567,25.9976812 C61.2307354,25.7867437 61.4504441,25.4824312 61.4504441,25.4824312 C61.3408693,25.4351812 61.601948,26.2553062 61.3956567,25.9976812 Z M60.3228299,25.6224937 C59.3321843,25.7749312 57.7086882,25.8688687 57.7086882,25.8688687 C57.3374756,25.8806812 57.5437669,24.2634937 58.5478299,23.7718687 C58.8642551,23.6194312 59.3735543,23.3033062 59.8962709,23.3966812 C60.3228299,23.4788062 61.0652551,23.6779312 61.2027827,24.1234312 C61.2441528,24.2522437 61.3956567,24.1701187 61.368263,24.4862437 C61.3129165,25.0723687 61.5471606,25.6343062 61.368263,25.6815562 C61.368263,25.6815562 60.6392551,25.5758062 60.3228299,25.6224937 Z M58.6445465,26.3256187 C59.2908142,25.9740562 62.180011,26.1731812 62.180011,26.1731812 C62.3997197,26.1383062 62.4136961,25.5054937 62.1660346,24.7556812 C62.1246646,24.6504937 62.0698772,24.1701187 62.0145307,24.0761812 C61.9043969,23.9006812 61.8770031,24.0413062 61.7668693,23.8652437 C61.560578,23.5254937 61.3816803,23.2211812 61.0104677,23.1857437 C60.9003339,23.1739312 60.8175937,22.8932437 60.7628063,22.8696187 C60.4324047,22.7171812 60.1439323,22.7408062 59.7033969,22.7408062 C59.1532866,22.7408062 58.5757827,22.8932437 58.1626409,23.0569312 C57.8327984,23.1857437 57.970326,23.1857437 57.9149795,23.2560562 C57.4202157,23.9006812 56.8007827,24.6504937 56.6632551,26.1619312 C56.6358614,26.5016812 56.581074,26.8296187 56.6632551,27.0990562 C57.2273417,28.8208687 58.2453811,29.5824937 59.7033969,29.5824937 C61.0104677,29.5824937 62.3309559,27.9540562 61.8635858,27.9658687 L61.7808457,27.8134312 C61.4230504,27.7200562 59.9510583,29.2545562 59.6212157,29.1375562 C57.1356567,28.4766187 57.5437669,27.2745562 57.5437669,26.3374312 C57.5437669,26.3374312 58.2867512,26.5129312 58.6445465,26.3256187 Z" id="Stroke-82" stroke="#FEFEFE"></path>
                            <path d="M64.3659165,23.6779875 L65.1089008,23.7016125 L65.1089008,27.3567375 C65.1089008,28.5402375 65.0121843,29.58255 66.8285543,29.58255 C67.1997669,29.58255 68.4654677,28.84455 68.011515,28.5987375 L67.8186409,28.469925 C67.6123496,28.0598625 66.9934756,28.926675 66.7732079,29.0903625 C66.0995465,29.5943625 66.1817276,28.3996125 66.1817276,27.7668 L66.1817276,25.1539875 L66.1817276,24.170175 L66.1817276,23.7016125 L67.6811134,23.6543625 L67.9287748,23.2797375 C67.9287748,23.2797375 67.9153575,23.1273 67.8874047,23.045175 C67.7085071,22.5063 66.1817276,22.928175 66.1817276,22.928175 C66.1817276,22.928175 66.0302236,22.4359875 66.0715937,22.084425 C66.1543339,21.4639875 66.0442,20.9251125 66.0442,20.9251125 C66.0442,20.9251125 65.5488772,20.5853625 65.3291685,20.725425 C65.232452,20.7844875 65.1636882,20.9948625 65.1636882,20.9948625 L65.1089008,22.928175 C65.1089008,22.928175 64.4072866,22.7172375 64.2009953,22.9518 C63.9947039,23.1858 64.3659165,23.6779875 64.3659165,23.6779875" id="Fill-84" fill="#FEFEFE"></path>
                            <path d="M64.3659165,23.6779875 L65.1089008,23.7016125 L65.1089008,27.3567375 C65.1089008,28.5402375 65.0121843,29.58255 66.8285543,29.58255 C67.1997669,29.58255 68.4654677,28.84455 68.011515,28.5987375 L67.8186409,28.469925 C67.6123496,28.0598625 66.9934756,28.926675 66.7732079,29.0903625 C66.0995465,29.5943625 66.1817276,28.3996125 66.1817276,27.7668 L66.1817276,25.1539875 L66.1817276,24.170175 L66.1817276,23.7016125 L67.6811134,23.6543625 L67.9287748,23.2797375 C67.9287748,23.2797375 67.9153575,23.1273 67.8874047,23.045175 C67.7085071,22.5063 66.1817276,22.928175 66.1817276,22.928175 C66.1817276,22.928175 66.0302236,22.4359875 66.0715937,22.084425 C66.1543339,21.4639875 66.0442,20.9251125 66.0442,20.9251125 C66.0442,20.9251125 65.5488772,20.5853625 65.3291685,20.725425 C65.232452,20.7844875 65.1636882,20.9948625 65.1636882,20.9948625 L65.1089008,22.928175 C65.1089008,22.928175 64.4072866,22.7172375 64.2009953,22.9518 C63.9947039,23.1858 64.3659165,23.6779875 64.3659165,23.6779875 Z" id="Stroke-86" stroke="#FEFEFE"></path>
                        </g>
                    </g>
                </g>
            </g>
        </g>
    </g>
</svg>