<?xml version="1.0" encoding="UTF-8" standalone="no"?>
<svg width="167px" height="51px" viewBox="0 0 167 51" version="1.1" xmlns="http://www.w3.org/2000/svg" xmlns:xlink="http://www.w3.org/1999/xlink">
    <!-- Generator: Sketch 43.1 (39012) - http://www.bohemiancoding.com/sketch -->
    <title>Group 10 Copy 4</title>
    <desc>Created with Sketch.</desc>
    <defs></defs>
    <g id="Page-1" stroke="none" stroke-width="1" fill="none" fill-rule="evenodd">
        <g id="Header-Nieuw-DEV" transform="translate(-149.000000, -1621.000000)">
            <g id="Group-10-Copy-4" transform="translate(149.000000, 1621.000000)">
                <g id="Logo-Colruyt">
                    <g id="Colruyt-Copy">
                        <polyline id="Fill-2" fill="#EE7115" points="146.538906 0 167 0 157.459079 20.5961538 137 20.5961538 146.538906 0"></polyline>
                        <path d="M16.731858,34.6037119 C15.6963098,35.2586538 14.927903,35.7207295 13.0479077,35.7207295 C9.59407922,35.7207295 8.02024601,33.3319994 8.02024601,30.2501558 C8.02024601,26.7434035 10.092343,24.8940965 12.5116238,24.8940965 C14.5837208,24.8940965 15.3511271,25.7419048 15.9274322,26.3194994 L16.3476546,26.2039804 C16.5397563,23.8544263 16.6167971,23.1221369 16.9619799,20.9252686 L16.7708787,20.6952353 C15.0059443,20.0774602 13.6992525,19.6153846 11.3980343,19.6153846 C8.44246954,19.6153846 5.98616915,20.3486786 4.37431581,21.3873442 C1.6108528,23.1603083 0,26.5897131 0,30.4801891 C0,34.8347497 2.11111765,41.1923077 11.2059326,41.1923077 C13.3550703,41.1923077 14.8128421,40.7684035 16.5777765,40.2681564 L16.7708787,40.0361141 L17,34.7955737 L16.731858,34.6037119" id="Fill-3" fill="#282828"></path>
                        <path d="M40,31.3649918 C40,26.7328115 38.6962417,24.5711945 37.3565176,23.2589279 C35.325452,21.2512808 32.4122265,20.5961538 29.5389629,20.5961538 C27.8146051,20.5961538 23.7524738,20.7883647 21.222883,23.7600849 C19.4215985,25.8844674 19,28.7786995 19,31.5572026 C19,34.3759593 19.4215985,39.5092965 24.5187441,41.3619674 C26.1282112,41.9798598 28.2362036,42.1730769 29.5759277,42.1730769 C33.0266413,42.1730769 36.3205043,41.2069911 38.3146051,38.3892408 C39.8471456,36.151142 40,32.7547465 40,31.3649918 Z M32.0675547,31.0178047 C32.0675547,31.789667 32.0675547,34.7231463 31.4161751,35.9579248 C30.9955756,36.8455161 30.343197,37.3869267 29.5,37.3869267 C29.2702188,37.3869267 27.7756422,37.3869267 27.2401522,35.1860625 C26.9714082,34.1042476 26.9324453,32.9862045 26.9324453,31.7514261 C26.9324453,28.2765361 27.2011893,25.3440631 29.5759277,25.3440631 C31.4541389,25.3440631 32.0675547,27.5046738 32.0675547,31.0178047 L32.0675547,31.0178047 Z" id="Fill-4" fill="#282828"></path>
                        <path d="M51,40.8123091 C50.761254,35.8406608 50.6827056,33.4864507 50.6827056,29.1214147 C50.6827056,26.2753836 50.761254,13.6730863 50.761254,11.1298665 L50.4439596,10.7884615 L42.238746,12.1550711 L42,12.3826744 C42.3968764,16.3687014 42.4361507,16.5953151 42.4361507,30.0704216 C42.4361507,34.8530602 42.3576022,36.9024798 42.238746,40.9261108 L42.5157327,41.1923077 C45.9635967,41.0399124 46.9960955,41.0399124 50.7219798,41.0775164 L51,40.8123091" id="Fill-5" fill="#282828"></path>
                        <path d="M55,21.2806634 C55.265329,24.0699296 55.4168042,25.6978431 55.4168042,30.2291383 C55.4168042,33.7929763 55.3039403,37.3568142 55.1890964,40.9206522 L55.4554155,41.1923077 C58.7591578,41.0751626 59.7848327,41.0751626 63.1638176,41.1135377 L63.4301366,40.803507 L63.3152927,34.0252468 C63.2776714,33.4061953 63.2776714,32.746749 63.2776714,32.1276975 C63.2776714,29.7262221 63.2776714,27.3631219 66.0497657,27.3631219 C66.999208,27.3631219 67.4556135,27.6731525 68.0248828,28.0609433 L68.4040657,27.9448081 C69.0119464,24.30321 69.1644116,23.5286382 70,19.9637904 L69.7336809,19.7315199 C69.2782655,19.6557795 68.8594812,19.6153846 68.4040657,19.6153846 C66.619035,19.6153846 65.2527886,20.4677165 64.2271137,22.056245 C63.8479308,22.6379312 63.5816118,23.2569827 63.3152927,23.8386689 L63.3925153,19.9637904 L63.1261963,19.6557795 C59.442281,20.4677165 58.5690713,20.5838518 55.2267177,21.0100177 L55,21.2806634" id="Fill-6" fill="#282828"></path>
                        <path d="M84.9046719,41.5122279 L85.1846858,41.7848788 C88.6712772,41.6673044 89.5938604,41.6673044 92.7189412,41.6673044 L93,41.3956671 C92.8798448,38.5961809 92.8401413,37.5076045 92.8401413,33.3864203 C92.8401413,29.2662497 92.8798448,25.1055362 92.9195482,20.9853655 L92.5998308,20.5961538 C89.1529429,20.8292754 88.3108115,20.8688047 84.8242201,20.9458362 L84.5839096,21.2184871 L84.8242201,35.4470124 C84.0625404,35.8362241 83.3019056,36.2244222 82.4597741,36.2244222 C80.2165282,36.2244222 80.2165282,33.9317221 80.2165282,31.442389 C80.2165282,30.4318576 80.2959351,26.0005203 80.2959351,25.1055362 C80.2959351,23.7068067 80.2562317,22.3455793 80.2562317,20.9458362 L79.9354694,20.5961538 L72.2810588,20.9458362 L72,21.1789578 C72.200607,25.0285047 72.200607,26.1170811 72.1598587,30.3152968 L72.1598587,31.9876908 C72.1212001,36.108875 72.1212001,38.2464986 73.5630628,39.995924 C74.4051943,41.0064554 76.1291607,42.1730769 78.4131549,42.1730769 C79.9354694,42.1730769 81.8987014,41.6287887 83.4220608,40.7348181 C83.94343,40.4631808 84.4637544,40.0739691 84.9443753,39.7242867 L84.9046719,41.5122279" id="Fill-7" fill="#282828"></path>
                        <path d="M98.5061868,51 C102.130254,50.8863333 102.968735,50.8863333 105.678474,50.8863333 L105.99745,50.6570058 C107.033343,46.4503411 107.432323,45.1112677 109.185133,39.7958542 L111.217436,33.9819025 L116,20.9790311 L115.762067,20.7108176 L109.385662,20.8254814 L109.146689,21.0548089 C107.950789,25.5685731 107.671295,26.6773219 105.99745,32.1851711 C104.482573,26.9834243 104.243601,25.9504533 103.008218,20.8254814 L102.689242,20.5961538 C98.9425711,20.8643674 98.0666856,20.9022563 94.1610466,20.9401452 L94,21.2083587 C95.0774535,23.6561809 95.1574573,23.8476195 96.5112874,27.5188543 C97.1502786,29.2776968 97.8671956,31.0754253 98.5061868,32.8342678 C99.5805233,35.7417421 100.298479,37.8445759 101.813356,42.2805682 C100.257958,46.2967913 99.860017,47.1762126 98.3046189,50.6948947 L98.5061868,51" id="Fill-8" fill="#282828"></path>
                        <path d="M129.070377,26.1962872 C129.663731,26.1962872 130.258118,26.2345188 130.891717,26.2345188 L131.208517,25.9266537 L131.642955,21.2966042 L131.327188,21.0249585 C129.545061,21.1798971 128.991951,21.1798971 127.566868,21.1798971 L127.685539,13.9631772 L127.329527,13.7307692 C124.044923,14.6956144 123.015066,14.966254 119.966772,15.6996973 L119.768643,15.9693308 L119.768643,21.0249585 L117.512865,21.0249585 L117.23631,21.2966042 L117,26.0031169 L117.23631,26.2345188 L119.768643,26.1580556 L119.689185,29.5536264 C119.689185,31.2901465 119.652036,33.0659043 119.652036,34.8024244 C119.652036,36.6154077 119.652036,37.5420213 119.966772,38.5833297 C120.719042,40.9768299 122.500138,42.1730769 126.418341,42.1730769 C128.319139,42.1730769 129.62555,41.940669 131.327188,41.5945723 L131.603742,41.3239327 L132,36.5771761 L131.6832,36.4232436 C131.049601,36.6546455 130.376789,36.8468096 129.663731,36.8468096 C128.913525,36.8468096 128.161255,36.5389445 127.80421,35.9212021 C127.447166,35.2652282 127.447166,33.761116 127.447166,32.988435 L127.566868,26.2345188 L129.070377,26.1962872" id="Fill-9" fill="#282828"></path>
                    </g>
                </g>
            </g>
        </g>
    </g>
</svg>