<svg fill="none" height="21" viewBox="0 0 24 21" width="24" xmlns="http://www.w3.org/2000/svg"><path d="m9.6875 17.2109v-1.3359h5.625v1.3359c0 .2344-.0586.4453-.1758.6329l-.5976.914c-.2344.3281-.5508.4922-.9493.4922h-2.1796c-.3985 0-.7032-.1641-.9141-.4922l-.63282-.914c-.11719-.1876-.17578-.3985-.17578-.6329zm2.7773-15.9609c1.7344 0 3.1993.60937 4.3946 1.82812 1.2187 1.19532 1.8281 2.64844 1.8281 4.35938 0 1.54688-.5156 2.9063-1.5469 4.0781-.8672 1.0078-1.4765 2.0742-1.8281 3.1992v.0352h-5.625c0-.0234 0-.0352 0-.0352-.35156-1.125-.96094-2.1914-1.82812-3.1992-1.03126-1.1718-1.54688-2.53122-1.54688-4.0781 0-1.66406.58594-3.10547 1.75781-4.32422 1.17188-1.24219 2.63669-1.86328 4.39449-1.86328zm.0352 3.375c.1641 0 .293-.04687.3867-.14062.1172-.11719.1758-.25782.1758-.42188s-.0586-.29297-.1758-.38672c-.0937-.11719-.2226-.17578-.3867-.17578-1.0781 0-2.0039.38672-2.77734 1.16016-.77344.77343-1.16016 1.69921-1.16016 2.77734 0 .16406.04688.30469.14062.42188.11719.09375.25782.14062.42188.14062s.29297-.04687.38672-.14062c.11719-.11719.17578-.25782.17578-.42188 0-.77344.26953-1.42969.8086-1.96875.5625-.5625 1.2305-.84375 2.0039-.84375zm-7.55859 2.77734c.16406.16407.24609.36328.24609.59766s-.08203.43359-.24609.59766c-.16407.16406-.36329.24609-.59766.24609h-2.25c-.23437 0-.43359-.08203-.59766-.24609-.16406-.16407-.24609-.36328-.24609-.59766s.08203-.43359.24609-.59766c.16407-.16406.36329-.24609.59766-.24609h2.25c.23437 0 .43359.08203.59766.24609zm17.96479-.24609c.2344 0 .4336.08203.5977.24609.1641.16407.2461.36328.2461.59766s-.082.43359-.2461.59766c-.1641.16406-.3633.24609-.5977.24609h-2.25c-.2343 0-.4335-.08203-.5976-.24609-.1641-.16407-.2461-.36328-.2461-.59766s.082-.43359.2461-.59766c.1641-.16406.3633-.24609.5976-.24609zm-17.05073-3.97266c.28125.16407.42187.41016.42187.73829 0 .23437-.08203.43359-.24609.59765s-.36328.24609-.59766.24609c-.14062 0-.28125-.03515-.42187-.10546l-1.9336-1.125c-.30468-.16407-.45703-.41016-.45703-.73828 0-.23438.08203-.4336.2461-.59766.16406-.16406.36328-.2461.59765-.2461.16407 0 .31641.03516.45704.10547zm16.06643 9.28121c.2812.1641.4219.4102.4219.7383 0 .2344-.0821.4336-.2461.5977-.1641.164-.3633.2461-.5977.2461-.1406 0-.2812-.0352-.4219-.1055l-1.9336-1.125c-.2812-.1641-.4218-.4102-.4218-.7383 0-.2343.082-.4336.2461-.5976.164-.1641.3632-.2461.5976-.2461.1406 0 .2813.0351.4219.1054zm-16.91018-1.125c.14062-.0703.28125-.1054.42187-.1054.23438 0 .4336.082.59766.2461.16406.164.24609.3633.24609.5976 0 .3281-.14062.5742-.42187.7383l-1.93359 1.125c-.14063.0703-.29297.1055-.45704.1055-.23437 0-.43359-.0821-.59765-.2461-.16407-.1641-.2461-.3633-.2461-.5977 0-.3281.15235-.5742.45703-.7383zm14.55468-6.57418c-.2344 0-.4336-.08203-.5976-.24609-.1641-.16406-.2461-.36328-.2461-.59765 0-.32813.1406-.57422.4218-.73829l1.9336-1.125c.1407-.07031.2813-.10547.4219-.10547.2344 0 .4336.08204.5977.2461.164.16406.2461.36328.2461.59766 0 .32812-.1407.57421-.4219.73828l-1.9336 1.125c-.1406.07031-.2813.10546-.4219.10546z" fill="#0055a2"/></svg>